<svg id="Livello_1" data-name="Livello 1" xmlns="http://www.w3.org/2000/svg" viewBox="0 0 1440 250">
  <title>bg-shapes</title>
  <path d="M1010,250c74.45-12.67,114.13,6.68,199.42-7.82C1375.19,214,1431.7,107,1419.24,0H818.69c-57.8,92.24-85.79,171.52-147.25,199.42C617.92,223.71,563.69,235.7,528,250Z" style="fill: #045292;opacity: 0.3"/>
  <path d="M228.9,250H829c11.42-63.7,2.26-127.48-39.81-158.53-47.37-35-98.28-.24-162.49-36.81A133.74,133.74,0,0,1,573.79,0H243.61A432.61,432.61,0,0,0,225,42.66c-22.17,59.62-47.5,127.76-1.84,198.93C225,244.43,226.91,247.23,228.9,250Z" style="fill: #01142d;opacity: 0.2"/>
  <path d="M0,250H816.93c-13.3-36.1-33.61-67.76-59.85-92.95-29-27.81-64.27-47.34-104.9-58.05-73.43-19.34-147.55-5.85-214.37,8.74A395.89,395.89,0,0,0,430,64.43,471.76,471.76,0,0,0,410.36,0H0Z" style="fill: #045292;opacity: 0.2"/>
  <path d="M1440,0H1084.6c-5.43,19.31-15.54,39.32-34.55,59.82-60.12,64.84-128.29,47.31-216.13,124.78-3.57,3.14-33.86,30.32-59.35,65.4H1440Z" style="fill: #01142d;opacity: 0.2"/>
  <path d="M672.22,156.9C569.56,99.85,388.28,296.32,316.64,236.78c-31.08-25.83-.71-65.92-43.76-146.64-8-15-32.2-60.37-73.88-90.14H28.68A196.65,196.65,0,0,0,0,21.48V250H729.72C720.71,207.9,701.42,173.13,672.22,156.9Z" style="fill: #045292;opacity: 0.2"/>
</svg>