<svg xmlns="http://www.w3.org/2000/svg" viewBox="0 0 70.35 64.31"><defs><style>.cls-1{fill:#fff;}.cls-2{fill:none;stroke:#fff;stroke-miterlimit:10;stroke-width:2px;}</style></defs><title>Agency</title><g id="Livello_2" data-name="Livello 2"><g id="Livello_1-2" data-name="Livello 1"><path class="cls-1" d="M41.46,27.74a5.86,5.86,0,1,0,0,8.28A5.86,5.86,0,0,0,41.46,27.74Zm-1.37,6.91a3.91,3.91,0,1,1,0-5.53A3.91,3.91,0,0,1,40.09,34.65Z"/><path class="cls-1" d="M44.29,17.87a2.66,2.66,0,1,0,0-3.76,2.66,2.66,0,0,0,0,3.76Z"/><path class="cls-1" d="M53.46,31a3.28,3.28,0,1,0,0-4.64,3.28,3.28,0,0,0,0,4.64Z"/><path class="cls-1" d="M48.93,51.44a2.66,2.66,0,1,0,0-3.76,2.66,2.66,0,0,0,0,3.76Z"/><path class="cls-1" d="M12.94,45.36a2.66,2.66,0,1,0,0-3.76,2.66,2.66,0,0,0,0,3.76Z"/><path class="cls-1" d="M1.24,31.82a4.23,4.23,0,1,0,0-6,4.23,4.23,0,0,0,0,6Z"/><path class="cls-1" d="M17,22.86a3.47,3.47,0,1,0,0-4.91,3.47,3.47,0,0,0,0,4.91Z"/><path class="cls-1" d="M37,6.08a3,3,0,1,0-3-3,3,3,0,0,0,3,3Z"/><path class="cls-1" d="M65.18,46.18a3,3,0,1,0,0-4.28,3,3,0,0,0,0,4.28Z"/><path class="cls-1" d="M28.78,63a4.3,4.3,0,1,0,0-6.08,4.3,4.3,0,0,0,0,6.08Z"/><path class="cls-1" d="M37.68,27.37l.18-23.09H36.11l-.18,23.85A7.89,7.89,0,0,1,37.68,27.37Z"/><path class="cls-1" d="M39.32,27.16l-.48.22-.39.7a11.12,11.12,0,0,1,1.63.65l6.67-11.93-1.52-.85L39.11,26.88l.12,0C39.43,26.75,39.51,27.08,39.32,27.16Z"/><path class="cls-1" d="M42.07,33.54c0,.06,0,.12,0,.18a.7.7,0,0,1-1.06.37c-.13.26-.25.51-.39.75L67,44.84l.62-1.63Z"/><path class="cls-1" d="M42.3,32.28,55.45,30l-.3-1.72L42.3,30.51C42.31,31.11,42.34,31.7,42.3,32.28Z"/><path class="cls-1" d="M34,34.59a3.76,3.76,0,0,1-.91-1.22c-4.47,2.27-12.52,6.3-18.42,9.23l.78,1.56,10.94-5.47,7-3.54A.63.63,0,0,1,34,34.59Z"/><path class="cls-1" d="M35.35,36.27,31.69,56.36l1.74-.06,3.66-20A6,6,0,0,1,35.35,36.27Z"/><path class="cls-1" d="M39.94,35.7a3,3,0,0,1-1.07.7,4.91,4.91,0,0,1-.49.15l11.34,13.4L51,48.81Z"/><path class="cls-1" d="M32.59,31.08,6.72,28.77l-.16,1.74,26,2.32A4.84,4.84,0,0,1,32.59,31.08Z"/><path class="cls-1" d="M33.15,29.29a.59.59,0,0,1,.38-.27L21.94,21l-1,1.43,11.74,8.11A3.81,3.81,0,0,1,33.15,29.29Z"/><path class="cls-2" d="M83.27,25.38"/></g></g></svg>