<svg xmlns="http://www.w3.org/2000/svg" viewBox="0 0 55.97 56.63"><defs><style>.cls-1,.cls-2{fill:#fff;}.cls-2{opacity:0.6;}.cls-3{opacity:0.5;}</style></defs><title>C&amp;amp;Dmark</title><g id="Livello_2" data-name="Livello 2"><g id="Livello_1-2" data-name="Livello 1"><path class="cls-1" d="M32.77,43.54H2.33V12H32.77v1.05c.78-.64,1.56-1.28,2.33-1.93V6a6,6,0,0,0-6-6H6A6,6,0,0,0,0,6V50.63a6,6,0,0,0,6,6H29.1a6,6,0,0,0,6-6V36.83a19.91,19.91,0,0,1-2.33-.17ZM2.33,6A3.67,3.67,0,0,1,6,2.33H29.1A3.67,3.67,0,0,1,32.77,6V9.67H2.33ZM32.77,50.63A3.67,3.67,0,0,1,29.1,54.3H6a3.67,3.67,0,0,1-3.67-3.67V45.87H32.77Z"/><path class="cls-2" d="M20.57,49H12.73a1.17,1.17,0,0,0,0,2.33h7.83a1.17,1.17,0,0,0,0-2.33Z"/><g class="cls-3"><path class="cls-1" d="M55.91,17.84a1,1,0,0,0-1.27-.61l-5.31,1.88A1,1,0,1,0,50,21l5.31-1.88A1,1,0,0,0,55.91,17.84Z"/><path class="cls-1" d="M47.85,11.9a1,1,0,0,0-1.33.47l-1.18,2.48a1,1,0,1,0,1.8.86l1.18-2.48A1,1,0,0,0,47.85,11.9Z"/><path class="cls-1" d="M52.94,26.09l-2.56-1.22a1,1,0,0,0-.86,1.8l2.56,1.22a1,1,0,0,0,.86-1.8Z"/></g><path class="cls-1" d="M46.62,33.5l-2.44-6.9a4.48,4.48,0,0,0-2.91-8.24l-2.44-6.9a1,1,0,0,0-1.6-.41L23.37,23.26,18.16,25.1A5.71,5.71,0,1,0,22,35.87l.62-.22.33.94,0,.05,1.71,4.61a.76.76,0,0,0,1,.45l3.7-1.29h0l-.11,0,.33-.12A1,1,0,0,0,30.19,39l-1.74-4.92,3.48.15h0l2,.1v0l11.69.5a1,1,0,0,0,1-1.33ZM42.86,20.55a2.49,2.49,0,0,1,.63,4.08L42,20.31A2.49,2.49,0,0,1,42.86,20.55ZM21.31,34a3.72,3.72,0,0,1-2.48-7l4.45-1.57,2.48,7ZM26,39.42,24.47,35l2-.69L28,38.73Zm1.71-7.36L25,24.43l8.8-7.76,5.62,15.9Zm13.87.59L35.45,15.25l2-1.75,6.81,19.27Z"/><rect class="cls-1" x="6.2" y="16.74" width="18.35" height="2.86" rx="1.43" ry="1.43"/><path class="cls-1" d="M19.57,23.05H7.63a1.43,1.43,0,0,0,0,2.86h5.64A58,58,0,0,1,19.57,23.05Z"/></g></g></svg>