<svg xmlns="http://www.w3.org/2000/svg" viewBox="0 0 55.53 56.02"><defs><style>.cls-1,.cls-2,.cls-3{fill:#fff;}.cls-2{opacity:0.6;}.cls-3{opacity:0.4;}</style></defs><title>builder</title><g id="Livello_2" data-name="Livello 2"><g id="Livello_1-2" data-name="Livello 1"><path class="cls-1" d="M27.6,2.72,52.13,18.64,27.62,35,3.39,18.92,27.6,2.72m0-2.72a1.39,1.39,0,0,0-.78.24L.62,17.77a1.39,1.39,0,0,0,0,2.32L26.85,37.47a1.39,1.39,0,0,0,1.54,0L54.91,19.79a1.39,1.39,0,0,0,0-2.33L28.35.22A1.39,1.39,0,0,0,27.59,0Z"/><path class="cls-2" d="M27.6,11.87,52.13,27.8,27.62,44.14,3.39,28.08,27.6,11.87m0-2.72a1.39,1.39,0,0,0-.78.24L.62,26.92a1.39,1.39,0,0,0,0,2.32L26.85,46.63a1.39,1.39,0,0,0,1.54,0L54.91,28.95a1.39,1.39,0,0,0,0-2.33L28.35,9.38a1.39,1.39,0,0,0-.76-.22Z"/><path class="cls-3" d="M27.6,21,52.13,37,27.62,53.3,3.39,37.23,27.6,21m0-2.72a1.39,1.39,0,0,0-.78.24L.62,36.08a1.39,1.39,0,0,0,0,2.32L26.85,55.79a1.39,1.39,0,0,0,1.54,0L54.91,38.1a1.39,1.39,0,0,0,0-2.33L28.35,18.54a1.39,1.39,0,0,0-.76-.22Z"/></g></g></svg>