<svg id="Livello_1" data-name="Livello 1" xmlns="http://www.w3.org/2000/svg" width="88" height="87.9" viewBox="0 0 88 87.9">
  <title>icon-industry-media</title>
  <g>
    <path d="M.3,76.8v-55A8.2,8.2,0,0,1,2.6,16a8,8,0,0,1,5.8-2.4h2.8V8.2a7.8,7.8,0,0,1,2.4-5.8A7.7,7.7,0,0,1,19.4,0H79.8a7.8,7.8,0,0,1,5.8,2.4A7.8,7.8,0,0,1,88,8.2V76.9a10.6,10.6,0,0,1-3.2,7.8A10.3,10.3,0,0,1,77,87.9H11a10.3,10.3,0,0,1-7.8-3.2A10.6,10.6,0,0,1,0,76.9Z" fill="#fff"/>
    <path d="M.3,76.8v-55A8.2,8.2,0,0,1,2.6,16a8,8,0,0,1,5.8-2.4h2.8V8.2a7.8,7.8,0,0,1,2.4-5.8A7.7,7.7,0,0,1,19.4,0H79.8a7.8,7.8,0,0,1,5.8,2.4A7.8,7.8,0,0,1,88,8.2V76.9a10.6,10.6,0,0,1-3.2,7.8A10.3,10.3,0,0,1,77,87.9H11a10.3,10.3,0,0,1-7.8-3.2A10.6,10.6,0,0,1,0,76.9Zm5.4,0a5.4,5.4,0,0,0,1.7,3.9,5.4,5.4,0,0,0,3.9,1.7h66a5.8,5.8,0,0,0,5.5-5.6V8.1A2.4,2.4,0,0,0,82,6.2a2.7,2.7,0,0,0-1.9-.8H19.6a2.2,2.2,0,0,0-1.9.8,3,3,0,0,0-.8,1.9v66a2.4,2.4,0,0,1-.8,1.9,2.7,2.7,0,0,1-1.9.8,2.3,2.3,0,0,1-2-.8,2.9,2.9,0,0,1-.8-1.9v-55H8.7a2.4,2.4,0,0,0-1.9.8A2.7,2.7,0,0,0,6,21.8v55ZM22.2,32.7V13.5a2.3,2.3,0,0,1,.8-2,3.7,3.7,0,0,1,1.9-.8H44.2a2.6,2.6,0,0,1,1.9.8,3.6,3.6,0,0,1,.8,2V32.7a2.6,2.6,0,0,1-.8,2,4.1,4.1,0,0,1-1.9.8H24.9a2.4,2.4,0,0,1-1.9-.8A3,3,0,0,1,22.2,32.7Zm0,9.6a1.2,1.2,0,0,1,1.4-1.4H75.9a1.3,1.3,0,0,1,1.4,1.4,1.2,1.2,0,0,1-1.4,1.4H23.6C22.6,43.7,22.2,43.3,22.2,42.3Zm0,8.3a1.2,1.2,0,0,1,1.4-1.4H75.9a1.4,1.4,0,0,1,0,2.8H23.6A1.2,1.2,0,0,1,22.2,50.6Zm0,8.3c0-1,.4-1.4,1.4-1.4h22A1.2,1.2,0,0,1,47,58.9a1.8,1.8,0,0,1-.4.9,1.6,1.6,0,0,1-1,.5h-22A1.2,1.2,0,0,1,22.2,58.9Zm0,8.2a1.2,1.2,0,0,1,1.4-1.4h22A1.3,1.3,0,0,1,47,67.1c0,1-.5,1.5-1.4,1.5h-22C22.6,68.6,22.2,68.1,22.2,67.1Zm0,8.3A1.2,1.2,0,0,1,23.6,74h22A1.3,1.3,0,0,1,47,75.4a1.2,1.2,0,0,1-1.4,1.4h-22C22.6,76.8,22.2,76.4,22.2,75.4ZM27.6,30H41.4V16.3H27.6ZM52.4,17.6a1.2,1.2,0,0,1,1.4-1.4h22a1.3,1.3,0,0,1,1.4,1.4A1.3,1.3,0,0,1,75.8,19h-22A1.2,1.2,0,0,1,52.4,17.6Zm0,8.3c0-1,.4-1.4,1.4-1.4h22a1.2,1.2,0,0,1,1.4,1.4,1.3,1.3,0,0,1-1.4,1.4h-22A1.2,1.2,0,0,1,52.4,25.9Zm0,8.2a1.2,1.2,0,0,1,1.4-1.4h22a1.3,1.3,0,0,1,1.4,1.4c0,1-.5,1.5-1.4,1.5h-22C52.8,35.6,52.4,35.1,52.4,34.1Zm0,24.8c0-1,.4-1.4,1.4-1.4h22a1.2,1.2,0,0,1,1.4,1.4,1.9,1.9,0,0,1-1.4,1.4h-22A1.2,1.2,0,0,1,52.4,58.9Zm0,8.2a1.2,1.2,0,0,1,1.4-1.4h22a1.3,1.3,0,0,1,1.4,1.4c0,1-.5,1.5-1.4,1.5h-22C52.8,68.6,52.4,68.1,52.4,67.1Zm0,8.3A1.2,1.2,0,0,1,53.8,74h22a1.3,1.3,0,0,1,1.4,1.4,1.2,1.2,0,0,1-1.4,1.4h-22C52.8,76.8,52.4,76.4,52.4,75.4Z" fill="#0678be"/>
  </g>
</svg>
