<?xml version="1.0" encoding="utf-8"?>
<!-- Generator: Adobe Illustrator 22.1.0, SVG Export Plug-In . SVG Version: 6.00 Build 0)  -->
<svg version="1.1" id="Layer_1" xmlns="http://www.w3.org/2000/svg" xmlns:xlink="http://www.w3.org/1999/xlink" x="0px" y="0px"
	 viewBox="0 0 100 100" style="enable-background:new 0 0 100 100;" xml:space="preserve">
<style type="text/css">
	.st0{fill:#0678BE;}
</style>
<g>
	<circle class="st0" cx="61" cy="58.6" r="1.3"/>
	<path class="st0" d="M95.1,49.4H38.5c-1.4,0-2.6,1.2-2.6,2.6v36.3c0,1.4,1.2,2.6,2.6,2.6h56.6c1.4,0,2.6-1.2,2.6-2.6V52
		C97.7,50.6,96.6,49.4,95.1,49.4z M68.1,73.4L56.3,61.6l1.3-6.3l6.3-1.3l11.8,11.8L68.1,73.4z"/>
	<path class="st0" d="M56.8,47.6V45c0-1.4,1.2-2.6,2.6-2.6h14.8c1.4,0,2.6,1.2,2.6,2.6v2.6h4.8V45c0-4-3.3-7.3-7.3-7.3H59.4
		c-4,0-7.3,3.3-7.3,7.3v2.6H56.8z"/>
	<path class="st0" d="M35.1,40.1l3.9,7.5h9.8L45.2,30l14.4-14.4c1.5-1.5,1.5-3.9,0-5.4c-1.5-1.5-3.9-1.5-5.4,0L39.8,24.6l-34.5-7
		l-3,3l27.4,14.1l-14,14l-7.4-1.5l-3,3l9.5,4.8l4.8,9.5l3-3l-1.5-7.4L35.1,40.1z"/>
</g>
</svg>
