<svg id="Livello_1" data-name="Livello 1" xmlns="http://www.w3.org/2000/svg" width="85.4" height="85.4" viewBox="0 0 85.4 85.4">
  <title>icon-industry-government</title>
  <g>
    <path d="M12.5,72.9A41.4,41.4,0,0,1,0,42.7,41.2,41.2,0,0,1,12.5,12.5,41.2,41.2,0,0,1,42.7,0,41.4,41.4,0,0,1,72.9,12.5,41.2,41.2,0,0,1,85.4,42.7,41.4,41.4,0,0,1,72.9,72.9,41.4,41.4,0,0,1,42.7,85.4,41.2,41.2,0,0,1,12.5,72.9Z" fill="#fff"/>
    <path d="M12.5,72.9A41.4,41.4,0,0,1,0,42.7,41.2,41.2,0,0,1,12.5,12.5,41.2,41.2,0,0,1,42.7,0,41.4,41.4,0,0,1,72.9,12.5,41.2,41.2,0,0,1,85.4,42.7,41.4,41.4,0,0,1,72.9,72.9,41.4,41.4,0,0,1,42.7,85.4,41.2,41.2,0,0,1,12.5,72.9Zm-7-31.5H21.9a53.6,53.6,0,0,1,3.3-17.2,42.7,42.7,0,0,1-10.3-6A34.8,34.8,0,0,0,5.5,41.4Zm0,2.7A36.2,36.2,0,0,0,16.5,69,53.5,53.5,0,0,1,26,63.6,55.8,55.8,0,0,1,21.9,44H5.5Zm11.3-28a42.8,42.8,0,0,0,9.4,5.5A47.8,47.8,0,0,1,36.5,6.1,35.3,35.3,0,0,0,16.7,16Zm1.8,54.8a35.9,35.9,0,0,0,18,8.5,50.1,50.1,0,0,1-9.2-13A36.9,36.9,0,0,0,18.6,71Zm6.1-29.5H41.2V27.6a50.4,50.4,0,0,1-13.4-2.5,58.2,58.2,0,0,0-3.1,16.3Zm0,2.7a56.9,56.9,0,0,0,4,18.7,57.2,57.2,0,0,1,12.6-2.2V44.2H24.7Zm4.2-21.7a43.3,43.3,0,0,0,12.4,2.4V5.5h-.2A43.6,43.6,0,0,0,28.9,22.4Zm1,42.8A44.4,44.4,0,0,0,41.1,79.8h.2V63.4A52.2,52.2,0,0,0,29.9,65.2ZM44,24.8a44,44,0,0,0,12.4-2.4A45,45,0,0,0,44.2,5.6H44V24.9Zm0,16.5H60.5a58.9,58.9,0,0,0-3.1-16.4A51.3,51.3,0,0,1,44,27.5V41.2Zm0,19.2a59.4,59.4,0,0,1,12.6,2.2A53.9,53.9,0,0,0,60.5,44H44.1V60.5Zm0,19.3h.2A44.4,44.4,0,0,0,55.4,65.2,46.8,46.8,0,0,0,44,63.4ZM48.7,6.1A49.4,49.4,0,0,1,59,21.6a42.8,42.8,0,0,0,9.4-5.5A35.3,35.3,0,0,0,48.6,6.2Zm0,73.2a36.7,36.7,0,0,0,18-8.5,38.9,38.9,0,0,0-8.8-4.6,50.1,50.1,0,0,1-9.2,13ZM59.1,63.6A45.4,45.4,0,0,1,68.7,69a36.2,36.2,0,0,0,11-24.9H63.3a56.4,56.4,0,0,1-4.2,19.6ZM60,24.1a57.1,57.1,0,0,1,3.3,17.2H79.7A36.3,36.3,0,0,0,70.3,18,37,37,0,0,1,60,24Z" fill="#0678be"/>
  </g>
</svg>
