<svg id="Livello_1" data-name="Livello 1" xmlns="http://www.w3.org/2000/svg" width="88" height="77" viewBox="0 0 88 77">
  <title>icon-industry-healthcare</title>
  <g>
    <path d="M0,26.1A25.3,25.3,0,0,1,7.7,7.6,25,25,0,0,1,25.7,0,25.8,25.8,0,0,1,44,6.9,25.8,25.8,0,0,1,62.3,0a25,25,0,0,1,18,7.6A25.3,25.3,0,0,1,88,26.1a25.2,25.2,0,0,1-7.7,18.4L49.8,74.6a8.2,8.2,0,0,1-11.6,0q-.2,0-30.5-30.1A25.2,25.2,0,0,1,0,26.1Z" fill="#fff"/>
    <path d="M0,26.1A25.3,25.3,0,0,1,7.7,7.6,25,25,0,0,1,25.7,0,25.8,25.8,0,0,1,44,6.9,25.8,25.8,0,0,1,62.3,0a25,25,0,0,1,18,7.6A25.3,25.3,0,0,1,88,26.1a25.2,25.2,0,0,1-7.7,18.4L49.8,74.6a8.2,8.2,0,0,1-11.6,0q-.2,0-30.5-30.1A25.2,25.2,0,0,1,0,26.1Zm5.5,0a19.6,19.6,0,0,0,6.1,14.5L42.1,70.7a2.2,2.2,0,0,0,3.7,0L76.3,40.6a19.7,19.7,0,0,0,6.2-14.5,19.7,19.7,0,0,0-6.2-14.6,20.6,20.6,0,0,0-14.1-6,20.2,20.2,0,0,0-14.4,5.4L44,14.3l-3.8-3.4A21.1,21.1,0,0,0,25.8,5.5a19.8,19.8,0,0,0-14.1,6A19.7,19.7,0,0,0,5.5,26.1Zm8.2-.7a11.2,11.2,0,0,1,3.5-8.2,11,11,0,0,1,8.2-3.5,1.2,1.2,0,0,1,1.4,1.4c0,1-.4,1.4-1.4,1.4a8.5,8.5,0,0,0-6.2,2.6,8.3,8.3,0,0,0-2.7,6.3c0,1-.4,1.4-1.4,1.4A1.2,1.2,0,0,1,13.7,25.4Z" fill="#0678be"/>
  </g>
</svg>
