<?xml version="1.0" encoding="utf-8"?>
<!-- Generator: Adobe Illustrator 22.1.0, SVG Export Plug-In . SVG Version: 6.00 Build 0)  -->
<svg version="1.1" id="Layer_1" xmlns="http://www.w3.org/2000/svg" xmlns:xlink="http://www.w3.org/1999/xlink" x="0px" y="0px"
	 viewBox="0 0 73 73" style="enable-background:new 0 0 73 73;" xml:space="preserve">
<style type="text/css">
	.st0{fill:#FFFFFF;stroke:#000000;stroke-miterlimit:10;}
	.st1{fill:#0678BE;}
</style>
<circle class="st0" cx="37" cy="36" r="34.5"/>
<path class="st1" d="M36.5,0.5c-19.9,0-36,16.1-36,36s16.1,36,36,36s36-16.1,36-36S56.4,0.5,36.5,0.5z M51,20.4c0,1.1-0.9,2-2,2
	s-2-0.9-2-2s0.9-2,2-2S51,19.3,51,20.4z M34.5,33c0-1.1,0.9-2,2-2s2,0.9,2,2c0,1.1-0.9,2-2,2S34.5,34.1,34.5,33z M51.9,64.5V43.1
	l5.5-5.5c0.8,0.4,1.7,0.6,2.6,0.6c3.3,0,6-2.7,6-6s-2.7-6-6-6s-6,2.7-6,6c0,0.9,0.2,1.8,0.6,2.6l-6.1,6.1c-0.4,0.4-0.6,0.9-0.6,1.4
	v24.1c-3,1.1-6.1,1.8-9.4,2.1V38.7c2.3-0.8,4-3,4-5.6c0-3.3-2.7-6-6-6s-6,2.7-6,6c0,2.6,1.7,4.8,4,5.6v29.8
	c-3.3-0.2-6.5-0.9-9.4-2.1V50c0-0.5-0.2-1-0.6-1.4L20.9,45c0.4-0.8,0.6-1.7,0.6-2.6c0-3.3-2.7-6-6-6s-6,2.7-6,6s2.7,6,6,6
	c0.9,0,1.8-0.2,2.6-0.6l3,3v13.7c-9.9-5.5-16.6-16-16.6-28C4.5,20.8,15.8,7.8,30.7,5v15.4H28c-0.8-2.3-3-4-5.6-4c-3.3,0-6,2.7-6,6
	s2.7,6,6,6c2.6,0,4.8-1.7,5.6-4h4.7c1.1,0,2-0.9,2-2V4.6c0.6,0,1.2-0.1,1.8-0.1c3.7,0,7.2,0.6,10.5,1.8v8.5c-2.3,0.8-4,3-4,5.6
	c0,3.3,2.7,6,6,6s6-2.7,6-6c0-2.6-1.7-4.8-4-5.6V8c10.4,5.3,17.5,16.1,17.5,28.5C68.5,48.5,61.8,59.1,51.9,64.5z M58.1,32.2
	c0-1.1,0.9-2,2-2s2,0.9,2,2c0,1.1-0.9,2-2,2S58.1,33.3,58.1,32.2z M15.5,44.5c-1.1,0-2-0.9-2-2s0.9-2,2-2s2,0.9,2,2
	S16.6,44.5,15.5,44.5z M24.3,22.4c0,1.1-0.9,2-2,2s-2-0.9-2-2s0.9-2,2-2C23.5,20.4,24.3,21.3,24.3,22.4z"/>
</svg>
