<?xml version="1.0" encoding="utf-8"?>
<!-- Generator: Adobe Illustrator 22.0.1, SVG Export Plug-In . SVG Version: 6.00 Build 0)  -->
<svg version="1.1" id="Livello_1" xmlns="http://www.w3.org/2000/svg" xmlns:xlink="http://www.w3.org/1999/xlink" x="0px" y="0px"
	 width="120px" height="120px" viewBox="0 0 120 120" enable-background="new 0 0 120 120" xml:space="preserve">
<g id="dedicated">
	<path fill="#FFFFFF" d="M-214.7-625.9v91.7c0,1-0.8,1.7-1.7,1.7h-39.8c-1,0-1.7-0.8-1.7-1.7v-91.7c0-1,0.8-1.7,1.7-1.7h39.8
		C-215.5-627.6-214.7-626.8-214.7-625.9z M-263.5-627.6h-39.8c-1,0-1.7,0.8-1.7,1.7v91.7c0,1,0.8,1.7,1.7,1.7h39.8
		c1,0,1.7-0.8,1.7-1.7v-91.7C-261.7-626.8-262.5-627.6-263.5-627.6z"/>
	<path fill="#0678BE" d="M-263.5-627.6h-39.8c-1,0-1.7,0.8-1.7,1.7v91.7c0,1,0.8,1.7,1.7,1.7h39.8c1,0,1.7-0.8,1.7-1.7v-91.7
		C-261.7-626.8-262.5-627.6-263.5-627.6z M-264.3-535h-38.1v-90h38.1V-535z M-268.7-614.6h-29.4v-1.7h29.4V-614.6z M-268.7-610.3
		h-29.4v-1.7h29.4V-610.3z M-268.7-606h-29.4v-1.7h29.4V-606z M-268.7-597.3h-29.4v-1.7h29.4V-597.3z M-268.7-593h-29.4v-1.7h29.4
		V-593z M-268.7-588.7h-29.4v-1.7h29.4V-588.7z M-298.1-560.1c0-1,0.8-1.7,1.7-1.7h26c1,0,1.7,0.8,1.7,1.7s-0.8,1.7-1.7,1.7h-26
		C-297.3-558.4-298.1-559.1-298.1-560.1z M-280.8-546.2c0,1.4-1.2,2.6-2.6,2.6c-1.4,0-2.6-1.2-2.6-2.6c0-1.4,1.2-2.6,2.6-2.6
		C-281.9-548.8-280.8-547.7-280.8-546.2z M-283.4-553.2c-3.8,0-6.9,3.1-6.9,6.9c0,3.8,3.1,6.9,6.9,6.9c3.8,0,6.9-3.1,6.9-6.9
		C-276.4-550.1-279.5-553.2-283.4-553.2z M-283.4-541.1c-2.9,0-5.2-2.3-5.2-5.2s2.3-5.2,5.2-5.2c2.9,0,5.2,2.3,5.2,5.2
		S-280.5-541.1-283.4-541.1z M-216.7-627.6h-39.8c-1,0-1.7,0.8-1.7,1.7v91.7c0,1,0.8,1.7,1.7,1.7h39.8c1,0,1.7-0.8,1.7-1.7v-91.7
		C-215-626.8-215.8-627.6-216.7-627.6z M-217.6-535h-38.1v-90h38.1V-535z M-221.9-614.6h-29.4v-1.7h29.4V-614.6z M-221.9-610.3
		h-29.4v-1.7h29.4V-610.3z M-221.9-606h-29.4v-1.7h29.4V-606z M-221.9-597.3h-29.4v-1.7h29.4V-597.3z M-221.9-593h-29.4v-1.7h29.4
		V-593z M-221.9-588.7h-29.4v-1.7h29.4V-588.7z M-251.3-560.1c0-1,0.8-1.7,1.7-1.7h26c1,0,1.7,0.8,1.7,1.7s-0.8,1.7-1.7,1.7h-26
		C-250.6-558.4-251.3-559.1-251.3-560.1z M-234-546.2c0,1.4-1.2,2.6-2.6,2.6c-1.4,0-2.6-1.2-2.6-2.6c0-1.4,1.2-2.6,2.6-2.6
		C-235.2-548.8-234-547.7-234-546.2z M-236.6-553.2c-3.8,0-6.9,3.1-6.9,6.9c0,3.8,3.1,6.9,6.9,6.9c3.8,0,6.9-3.1,6.9-6.9
		C-229.7-550.1-232.8-553.2-236.6-553.2z M-236.6-541.1c-2.9,0-5.2-2.3-5.2-5.2s2.3-5.2,5.2-5.2c2.9,0,5.2,2.3,5.2,5.2
		S-233.8-541.1-236.6-541.1z"/>
</g>
<g id="shared">
	<path fill="#FFFFFF" d="M-864-291.6c0-1.7-0.6-3.1-1.8-4.3c-1.2-1.2-2.6-1.8-4.3-1.8H-930c-1.7,0-3.1,0.6-4.3,1.8
		c-1.2,1.2-1.8,2.6-1.8,4.3v16.6c0,1.6,0.5,2.2,1.5,3.2c-1,1.1-1.5,2.5-1.5,4v16.6c0,1.6,0.5,2.2,1.5,3.2c-1,1.1-1.5,2.5-1.5,4v16.6
		c0,1.7,0.6,2.3,1.8,3.4c1.2,1.2,2.6,1.8,4.3,1.8h59.9c1.7,0,3.1-0.6,4.3-1.8c1.2-1.2,1.8-1.8,1.8-3.4v-16.6c0-1.6-0.5-2.9-1.5-4
		c1-1,1.5-1.6,1.5-3.2v-16.6c0-1.6-0.5-2.9-1.5-4c1-1,1.5-1.6,1.5-3.2V-291.6z"/>
	<path fill="#0678BE" d="M-864-291.6c0-1.7-0.6-3.1-1.8-4.3c-1.2-1.2-2.6-1.8-4.3-1.8H-930c-1.7,0-3.1,0.6-4.3,1.8
		c-1.2,1.2-1.8,2.6-1.8,4.3v16.6c0,1.6,0.5,2.2,1.5,3.2c-1,1.1-1.5,2.5-1.5,4v16.6c0,1.6,0.5,2.2,1.5,3.2c-1,1.1-1.5,2.5-1.5,4v16.6
		c0,1.7,0.6,2.3,1.8,3.4c1.2,1.2,2.6,1.8,4.3,1.8h59.9c1.7,0,3.1-0.6,4.3-1.8c1.2-1.2,1.8-1.8,1.8-3.4v-16.6c0-1.6-0.5-2.9-1.5-4
		c1-1,1.5-1.6,1.5-3.2v-16.6c0-1.6-0.5-2.9-1.5-4c1-1,1.5-1.6,1.5-3.2V-291.6z M-932-291.6c0-0.5,0.2-1,0.6-1.4
		c0.4-0.4,0.9-0.6,1.4-0.6h59.9c0.5,0,1,0.2,1.4,0.6c0.4,0.4,0.6,0.9,0.6,1.4v16.6c0,0.5-0.2,0.2-0.6,0.6c-0.4,0.4-0.8,0.6-1.3,0.6
		c0,0-0.1,0-0.1,0H-930c0,0-0.1,0-0.1,0c-0.5,0-0.9-0.2-1.3-0.6c-0.4-0.4-0.6,0-0.6-0.6V-291.6z M-868.6-269.3
		c0.4,0.4,0.6,0.9,0.6,1.4v16.6c0,0.5-0.2,0.2-0.6,0.6c-0.4,0.4-0.8,0.6-1.3,0.6c0,0-0.1,0-0.1,0H-930c0,0-0.1,0-0.1,0
		c-0.5,0-0.9-0.2-1.3-0.6c-0.4-0.4-0.6,0-0.6-0.6v-16.6c0-0.5,0.2-1,0.6-1.4c0.4-0.4,0.8-0.6,1.3-0.6c0,0,0.1,0,0.1,0h59.9
		c0,0,0.1,0,0.1,0C-869.4-269.8-869-269.7-868.6-269.3z M-868.1-227.5c0,0.5-0.2,0.2-0.6,0.6c-0.4,0.4-0.9,0.6-1.4,0.6H-930
		c-0.5,0-1-0.2-1.4-0.6c-0.4-0.4-0.6,0-0.6-0.6v-16.6c0-0.5,0.2-1,0.6-1.4c0.4-0.4,0.8-0.6,1.3-0.6c0,0,0.1,0,0.1,0h59.9
		c0,0,0.1,0,0.1,0c0.5,0,0.9,0.2,1.3,0.6c0.4,0.4,0.6,0.9,0.6,1.4V-227.5z M-928.7-282.8c-0.2-0.2-0.3-0.4-0.3-0.7c0-0.6,0.3-1,1-1
		h33.9c0.7,0,1,0.3,1,1c0,0.3-0.1,0.5-0.3,0.7c-0.2,0.2-0.4,0.3-0.7,0.3h-33.9C-928.2-282.5-928.5-282.6-928.7-282.8z M-893.1-259.8
		c0,0.3-0.1,0.5-0.3,0.7c-0.2,0.2-0.4,0.3-0.7,0.3h-33.9c-0.3,0-0.5-0.1-0.7-0.3c-0.2-0.2-0.3-0.4-0.3-0.7c0-0.6,0.3-1,1-1h33.9
		C-893.4-260.7-893.1-260.4-893.1-259.8z M-893.1-236c0,0.3-0.1,0.5-0.3,0.7c-0.2,0.2-0.4,0.3-0.7,0.3h-33.9c-0.3,0-0.5-0.1-0.7-0.3
		s-0.3-0.4-0.3-0.7c0-0.6,0.3-1,1-1h33.9C-893.4-237-893.1-236.6-893.1-236z M-878.4-278c3.3,0,5.9-2.7,5.9-5.9s-2.7-5.9-5.9-5.9
		s-5.9,2.7-5.9,5.9S-881.7-278-878.4-278z M-878.4-287.3c1.9,0,3.4,1.5,3.4,3.4c0,1.9-1.5,3.4-3.4,3.4s-3.4-1.5-3.4-3.4
		C-881.8-285.8-880.3-287.3-878.4-287.3z M-878.4-265.2c-3.3,0-5.9,2.7-5.9,5.9c0,3.3,2.7,5.9,5.9,5.9s5.9-2.7,5.9-5.9
		C-872.5-262.6-875.1-265.2-878.4-265.2z M-878.4-255.8c-1.9,0-3.4-1.5-3.4-3.4c0-1.9,1.5-3.4,3.4-3.4s3.4,1.5,3.4,3.4
		C-875-257.4-876.5-255.8-878.4-255.8z M-878.4-241.4c-3.3,0-5.9,2.7-5.9,5.9c0,3.3,2.7,5.9,5.9,5.9s5.9-2.7,5.9-5.9
		C-872.5-238.8-875.1-241.4-878.4-241.4z M-878.4-232.1c-1.9,0-3.4-1.5-3.4-3.4c0-1.9,1.5-3.4,3.4-3.4s3.4,1.5,3.4,3.4
		C-875-233.6-876.5-232.1-878.4-232.1z"/>
</g>
<g id="vps">
	<path fill="#FFFFFF" d="M-532-220.8h-96c-1.1,0-2-0.9-2-2v-74.3c0-1.1,0.9-2,2-2h96c1.1,0,2,0.9,2,2v74.3
		C-530-221.7-530.9-220.8-532-220.8z"/>
	<path fill="#0678BE" d="M-530.7-300.2h-98.7c-0.9,0-1.7,0.7-1.7,1.7v77c0,0.9,0.7,1.7,1.7,1.7h98.7c0.9,0,1.7-0.7,1.7-1.7v-77
		C-529-299.4-529.7-300.2-530.7-300.2z M-532.5-296.7v8.3h-95v-8.3H-532.5z M-627.5-223.3v-62.5h95v62.5H-627.5z M-625-292.5
		c0-0.7,0.6-1.2,1.2-1.2h11.7c0.7,0,1.2,0.6,1.2,1.2c0,0.7-0.6,1.2-1.2,1.2h-11.7C-624.4-291.2-625-291.8-625-292.5z M-536.7-290
		c1.4,0,2.5-1.1,2.5-2.5c0-1.4-1.1-2.5-2.5-2.5c-1.4,0-2.5,1.1-2.5,2.5C-539.2-291.1-538-290-536.7-290z M-536.7-294.2
		c0.9,0,1.7,0.7,1.7,1.7s-0.7,1.7-1.7,1.7s-1.7-0.7-1.7-1.7S-537.6-294.2-536.7-294.2z M-544.2-290c1.4,0,2.5-1.1,2.5-2.5
		c0-1.4-1.1-2.5-2.5-2.5c-1.4,0-2.5,1.1-2.5,2.5C-546.7-291.1-545.5-290-544.2-290z M-544.2-294.2c0.9,0,1.7,0.7,1.7,1.7
		s-0.7,1.7-1.7,1.7s-1.7-0.7-1.7-1.7S-545.1-294.2-544.2-294.2z M-551.7-290c1.4,0,2.5-1.1,2.5-2.5c0-1.4-1.1-2.5-2.5-2.5
		c-1.4,0-2.5,1.1-2.5,2.5C-554.2-291.1-553-290-551.7-290z M-551.7-294.2c0.9,0,1.7,0.7,1.7,1.7s-0.7,1.7-1.7,1.7s-1.7-0.7-1.7-1.7
		S-552.6-294.2-551.7-294.2z M-606.7-265h68.3v-13.3h-68.3V-265z M-604.2-275.8h63.3v8.3h-63.3V-275.8z M-574.2-271.7
		c0,0.7-0.6,1.2-1.2,1.2h-11.7c-0.7,0-1.2-0.6-1.2-1.2s0.6-1.2,1.2-1.2h11.7C-574.7-272.9-574.2-272.4-574.2-271.7z M-545.8-271.7
		c0,0.7-0.6,1.2-1.2,1.2h-23.3c-0.7,0-1.2-0.6-1.2-1.2s0.6-1.2,1.2-1.2h23.3C-546.4-272.9-545.8-272.4-545.8-271.7z M-596.7-271.7
		c0,1.4-1.1,2.5-2.5,2.5c-1.4,0-2.5-1.1-2.5-2.5s1.1-2.5,2.5-2.5C-597.8-274.2-596.7-273-596.7-271.7z M-606.7-248.3h68.3v-13.3
		h-68.3V-248.3z M-604.2-259.2h63.3v8.3h-63.3V-259.2z M-574.2-255c0,0.7-0.6,1.2-1.2,1.2h-11.7c-0.7,0-1.2-0.6-1.2-1.2
		c0-0.7,0.6-1.2,1.2-1.2h11.7C-574.7-256.2-574.2-255.7-574.2-255z M-545.8-255c0,0.7-0.6,1.2-1.2,1.2h-23.3c-0.7,0-1.2-0.6-1.2-1.2
		c0-0.7,0.6-1.2,1.2-1.2h23.3C-546.4-256.2-545.8-255.7-545.8-255z M-596.7-255c0,1.4-1.1,2.5-2.5,2.5c-1.4,0-2.5-1.1-2.5-2.5
		c0-1.4,1.1-2.5,2.5-2.5C-597.8-257.5-596.7-256.4-596.7-255z M-606.7-231.7h68.3V-245h-68.3V-231.7z M-604.2-242.5h63.3v8.3h-63.3
		V-242.5z M-574.2-238.3c0,0.7-0.6,1.2-1.2,1.2h-11.7c-0.7,0-1.2-0.6-1.2-1.2c0-0.7,0.6-1.2,1.2-1.2h11.7
		C-574.7-239.6-574.2-239-574.2-238.3z M-545.8-238.3c0,0.7-0.6,1.2-1.2,1.2h-23.3c-0.7,0-1.2-0.6-1.2-1.2c0-0.7,0.6-1.2,1.2-1.2
		h23.3C-546.4-239.6-545.8-239-545.8-238.3z M-596.7-238.3c0,1.4-1.1,2.5-2.5,2.5c-1.4,0-2.5-1.1-2.5-2.5c0-1.4,1.1-2.5,2.5-2.5
		C-597.8-240.8-596.7-239.7-596.7-238.3z M-610.8-271.7c0,0.7-0.6,1.2-1.2,1.2h-9.2c-0.7,0-1.2-0.6-1.2-1.2s0.6-1.2,1.2-1.2h9.2
		C-611.4-272.9-610.8-272.4-610.8-271.7z M-610.8-255c0,0.7-0.6,1.2-1.2,1.2h-9.2c-0.7,0-1.2-0.6-1.2-1.2c0-0.7,0.6-1.2,1.2-1.2h9.2
		C-611.4-256.2-610.8-255.7-610.8-255z M-610.8-238.3c0,0.7-0.6,1.2-1.2,1.2h-9.2c-0.7,0-1.2-0.6-1.2-1.2c0-0.7,0.6-1.2,1.2-1.2h9.2
		C-611.4-239.6-610.8-239-610.8-238.3z"/>
</g>
<g id="reseller">
	<path fill="#FFFFFF" d="M91.2-569.3c-0.6,1.8-1.9,2.8-3.8,2.8h-55c-0.9,0-1.7-0.3-2.4-0.8c-0.7-0.5-1.2-1.2-1.4-2h0.1
		c-0.6-1.8-0.1-3.3,1.6-4.4c5-3.3,11.1-5.7,18.3-7.2c-3.5-4.4-6-9.8-7.5-16.1c-0.4-2.3-0.6-4.9-0.7-7.7c0-2.8,0.4-5.9,1.4-9.3
		c1-3.4,2.3-6.3,4.1-8.7c3.5-4.4,8.2-6.6,14-6.6c5.8,0,10.5,2.2,14,6.6c1.8,2.4,3.2,5.3,4.1,8.7c1,3.4,1.4,6.5,1.4,9.3
		c0,2.8-0.3,5.4-0.7,7.7c-1.5,6.3-4,11.6-7.5,16.1c7.2,1.5,13.3,4,18.3,7.2C91.3-572.6,91.8-571.2,91.2-569.3z M22.4-547.4
		c-1.1,0-2.1,0.5-2.8,1.3c-0.6,0.8-0.9,1.7-0.9,2.7c0.1,1,0.5,1.9,1.3,2.5c0.9,0.7,1.8,0.9,2.4,0.9c1.1,0,2.1-0.5,2.8-1.3
		c0.6-0.8,0.9-1.7,0.9-2.7c-0.1-1-0.5-1.9-1.3-2.5C23.9-547.3,23-547.4,22.4-547.4z M22.4-547.4L22.4-547.4L22.4-547.4L22.4-547.4z
		 M60-541.8c-2,0-3.7,1.7-3.7,3.7c0,2,1.7,3.7,3.7,3.7s3.7-1.7,3.7-3.7C63.7-540.1,62-541.8,60-541.8z M100.4-546.1
		c-0.7-0.8-1.7-1.3-2.8-1.3c-0.6,0-1.5,0.2-2.4,0.9c-1.6,1.3-1.8,3.6-0.5,5.2c0.7,0.8,1.7,1.3,2.8,1.3c0.6,0,1.5-0.2,2.4-0.9
		C101.5-542.2,101.7-544.5,100.4-546.1z"/>
	<path fill="#0678BE" d="M28.6-569.4c0.2,0.8,0.7,1.5,1.4,2c0.7,0.5,1.5,0.8,2.4,0.8h55c2,0,3.2-0.9,3.8-2.8
		c0.6-1.8,0.1-3.3-1.6-4.5c-5-3.3-11.1-5.7-18.3-7.2c3.5-4.4,6-9.8,7.5-16.1c0.4-2.3,0.6-4.9,0.7-7.7c0-2.8-0.4-5.9-1.4-9.3
		c-1-3.4-2.3-6.3-4.1-8.7c-3.5-4.4-8.2-6.6-14-6.6c-5.8,0-10.5,2.2-14,6.6c-1.8,2.4-3.2,5.3-4.1,8.7c-1,3.4-1.4,6.5-1.4,9.3
		c0,2.8,0.3,5.4,0.7,7.7c1.5,6.3,4,11.7,7.5,16.1c-7.2,1.5-13.3,4-18.3,7.2c-1.6,1.1-2.2,2.6-1.6,4.4H28.6z M45.7-595.3
		c-1.3-4.4-1.6-8.7-1-13.1h0.1c0.6-4.7,2.2-8.8,4.8-12.1c2.6-3.4,6.1-5,10.6-5c4.4,0,8,1.7,10.6,5c2.6,3.4,4.2,7.4,4.8,12.1
		c0.6,4.3,0.3,8.7-1,13.1c-1.3,4.4-3.3,8.3-6,11.7l-0.6,0.9c-2.4,2.7-5,4-7.7,4s-5.3-1.3-7.7-4l-0.6-0.9C49-587,47-590.9,45.7-595.3
		z M49.4-577.2l4.9-1c1.9,1.2,3.8,1.8,5.8,1.8s3.9-0.6,5.8-1.8l4.9,1c6.7,1.5,12.3,3.7,16.8,6.7h-55h-0.1
		C37-573.5,42.7-575.8,49.4-577.2z M60-562.1c1,0,1.8,0.8,1.8,1.8v9.2c0,1-0.8,1.8-1.8,1.8s-1.8-0.8-1.8-1.8v-9.2
		C58.2-561.3,59-562.1,60-562.1z M60-545.5c-4.1,0-7.4,3.3-7.4,7.4c0,4.1,3.3,7.4,7.4,7.4s7.4-3.3,7.4-7.4
		C67.4-542.2,64.1-545.5,60-545.5z M60-534.4c-2,0-3.7-1.7-3.7-3.7c0-2,1.7-3.7,3.7-3.7s3.7,1.7,3.7,3.7
		C63.7-536.1,62-534.4,60-534.4z M90.5-552.2c-0.8,0.7-1.9,0.6-2.6-0.2l-5.9-7.1c-0.7-0.8-0.6-1.9,0.2-2.6s1.9-0.6,2.6,0.2l5.9,7.1
		C91.4-554,91.3-552.9,90.5-552.2z M103.3-548.5c-1.5-1.7-3.6-2.6-5.7-2.6c-1.7,0-3.4,0.6-4.7,1.7c-3.1,2.6-3.5,7.3-0.9,10.4
		c1.5,1.7,3.6,2.6,5.7,2.6c1.7,0,3.4-0.6,4.7-1.7C105.5-540.7,105.9-545.3,103.3-548.5z M100-540.9c-0.9,0.7-1.8,0.9-2.4,0.9
		c-1.1,0-2.1-0.5-2.8-1.3c-1.3-1.6-1.1-3.9,0.5-5.2c0.9-0.7,1.8-0.9,2.4-0.9c1.1,0,2.1,0.5,2.8,1.3
		C101.7-544.5,101.5-542.2,100-540.9z M37.8-562.1c0.8,0.7,0.9,1.8,0.2,2.6l-5.9,7.1c-0.7,0.8-1.8,0.9-2.6,0.2
		c-0.8-0.7-0.9-1.8-0.2-2.6l5.9-7.1C35.9-562.7,37-562.8,37.8-562.1z M27.1-549.4c-1.4-1.2-3.1-1.7-4.7-1.7c-2.1,0-4.2,0.9-5.7,2.6
		c-2.6,3.1-2.2,7.8,0.9,10.4c1.4,1.2,3.1,1.7,4.7,1.7c2.1,0,4.2-0.9,5.7-2.6C30.7-542.1,30.3-546.7,27.1-549.4z M25.2-541.3
		c-0.7,0.8-1.7,1.3-2.8,1.3c-0.6,0-1.5-0.2-2.4-0.9c-0.8-0.6-1.2-1.5-1.3-2.5c-0.1-1,0.2-1.9,0.9-2.7c0.7-0.8,1.7-1.3,2.8-1.3
		c0.6,0,1.5,0.2,2.4,0.9c0.8,0.6,1.2,1.5,1.3,2.5C26.2-543,25.9-542.1,25.2-541.3z"/>
</g>
<g id="enterprise">
	<path fill="#FFFFFF" d="M-863-624.5h-46c-1.1,0-2,0.9-2,2v43h-26c-1.1,0-2,0.9-2,2v40c0,1.1,0.9,2,2,2h13h3v-3v-6h6v6v3h3h13h7h3
		v-3v-9h6v9v3h3h17c1.1,0,2-0.9,2-2v-85C-861-623.6-861.9-624.5-863-624.5z"/>
	<path fill="#0678BE" d="M-912-563.5h-4v-3h4V-563.5z M-912-561.5h-4v3h4V-561.5z M-912-556.5h-4v3h4V-556.5z M-905-556.5h-4v3h4
		V-556.5z M-912-571.5h-4v3h4V-571.5z M-919-571.5h-4v3h4V-571.5z M-905-561.5h-4v3h4V-561.5z M-926-566.5h-4v3h4V-566.5z
		 M-926-571.5h-4v3h4V-571.5z M-919-566.5h-4v3h4V-566.5z M-926-561.5h-4v3h4V-561.5z M-926-556.5h-4v3h4V-556.5z M-919-556.5h-4v3
		h4V-556.5z M-919-561.5h-4v3h4V-561.5z M-905-566.5h-4v3h4V-566.5z M-905-571.5h-4v3h4V-571.5z M-891-606.5h-4v3h4V-606.5z
		 M-891-611.5h-4v3h4V-611.5z M-891-596.5h-4v3h4V-596.5z M-891-601.5h-4v3h4V-601.5z M-884-611.5h-4v3h4V-611.5z M-891-586.5h-4v3
		h4V-586.5z M-891-591.5h-4v3h4V-591.5z M-884-606.5h-4v3h4V-606.5z M-898-606.5h-4v3h4V-606.5z M-898-611.5h-4v3h4V-611.5z
		 M-861-622.5v85c0,1.1-0.9,2-2,2h-17h-3v-3v-9h-6v9v3h-3h-7h-13h-3v-3v-6h-6v6v3h-3h-13c-1.1,0-2-0.9-2-2v-40c0-1.1,0.9-2,2-2h26
		v-43c0-1.1,0.9-2,2-2h46C-861.9-624.5-861-623.6-861-622.5z M-900-576.5h-36v38h12v-7c0-1.1,0.9-2,2-2h8c1.1,0,2,0.9,2,2v7h12
		V-576.5z M-864-621.5h-44v42h9c1.1,0,2,0.9,2,2v39h5v-10c0-1.1,0.9-2,2-2h8c1.1,0,2,0.9,2,2v10h16V-621.5z M-898-601.5h-4v3h4
		V-601.5z M-898-586.5h-4v3h4V-586.5z M-898-591.5h-4v3h4V-591.5z M-898-596.5h-4v3h4V-596.5z M-884-601.5h-4v3h4V-601.5z
		 M-870-601.5h-4v3h4V-601.5z M-877-586.5h-4v3h4V-586.5z M-870-606.5h-4v3h4V-606.5z M-870-611.5h-4v3h4V-611.5z M-870-586.5h-4v3
		h4V-586.5z M-870-591.5h-4v3h4V-591.5z M-870-596.5h-4v3h4V-596.5z M-877-606.5h-4v3h4V-606.5z M-884-596.5h-4v3h4V-596.5z
		 M-884-586.5h-4v3h4V-586.5z M-877-591.5h-4v3h4V-591.5z M-884-591.5h-4v3h4V-591.5z M-877-596.5h-4v3h4V-596.5z M-877-611.5h-4v3
		h4V-611.5z M-877-601.5h-4v3h4V-601.5z"/>
</g>
<g id="cloud">
	<path fill="#FFFFFF" d="M-543.4-597.5c-3-3.5-6.7-5.7-11.2-6.6c-0.7-5.9-3.1-10.9-7.5-14.8c-4.3-4-9.5-6-15.4-6
		c-4.5,0-8.7,1.2-12.5,3.7c-3.8,2.5-6.6,5.7-8.4,9.8c-1.3-0.4-2.4-0.7-3.5-0.7c-3.2,0-6,1.1-8.2,3.4c-2.2,2.2-3.4,5-3.4,8.2
		c0,1.2,0.2,2.4,0.7,3.5c-2.6,1.5-4.6,3.5-6.1,6.1c-1.5,2.5-2.2,5.3-2.2,8.3c0,4.6,1.7,8.5,4.9,11.7c3.3,3.3,7.2,4.9,11.8,4.9h3.7
		v9.5c0,3,2.1,5.4,6.2,7.1c4.1,1.7,8.9,2.5,14.4,2.5c5.5,0,10.3-0.9,14.4-2.5c4.1-1.6,6.2-4,6.2-7.1v-9.5h1.2
		c5.4,0,9.9-1.9,13.6-5.6c3.7-3.7,5.6-8.3,5.6-13.6C-539-589.9-540.5-594-543.4-597.5z"/>
	<path fill="#0678BE" d="M-578-547c4.7-0.2,8.8-1,12.4-2.4c4.1-1.6,6.2-4,6.2-7.1v-9.5h1.2c5.4,0,9.9-1.9,13.6-5.6
		c3.7-3.7,5.6-8.3,5.6-13.6c0-4.7-1.5-8.8-4.4-12.3c-3-3.5-6.7-5.7-11.2-6.6c-0.7-5.9-3.1-10.9-7.5-14.8c-4.3-4-9.5-6-15.4-6
		c-4.5,0-8.7,1.2-12.5,3.7c-3.8,2.5-6.6,5.7-8.4,9.8c-1.3-0.4-2.4-0.7-3.5-0.7c-3.2,0-6,1.1-8.2,3.4c-2.2,2.2-3.4,5-3.4,8.2
		c0,1.2,0.2,2.4,0.7,3.5c-2.6,1.5-4.6,3.5-6.1,6.1c-1.5,2.5-2.2,5.3-2.2,8.3c0,4.6,1.7,8.5,4.9,11.7c3.3,3.3,7.2,4.9,11.8,4.9h3.7
		v9.5c0,3,2.1,5.4,6.2,7.1c3.6,1.5,7.7,2.3,12.4,2.5v3.3c0,0,0,0,0,0c-2.3,0.7-4,2.5-4.7,4.7c0,0,0,0,0,0H-607c-1.1,0-2,0.9-2,2
		s0.9,2,2,2h20.3c0,0,0,0,0,0c0.9,2.9,3.5,5,6.7,5s5.8-2.1,6.7-5c0,0,0,0,0,0h20.3c1.1,0,2-0.9,2-2s-0.9-2-2-2h-20.3c0,0,0,0,0,0
		c-0.7-2.3-2.5-4-4.7-4.7c0,0,0,0,0,0V-547z M-562.4-565.3c0,1.8-1.7,3.4-5.1,4.7c-3.4,1.3-7.6,1.9-12.5,1.9
		c-4.9,0-9.1-0.6-12.5-1.9c-3.4-1.3-5.1-2.9-5.1-4.7v-5.5c1.5,1.5,3.8,2.7,7,3.5c3.2,0.8,6.8,1.2,10.6,1.2c3.8,0,7.3-0.4,10.6-1.2
		c3.2-0.8,5.6-2,7.1-3.5V-565.3z M-562.4-574.1c0,1.8-1.7,3.4-5.1,4.7c-3.4,1.3-7.6,1.9-12.5,1.9c-4.9,0-9.1-0.6-12.5-1.9
		c-3.4-1.3-5.1-2.9-5.1-4.7v-5c1.8,1.4,4.4,2.5,7.5,3.2c3.2,0.7,6.5,1.1,10.1,1.1c3.6,0,6.9-0.4,10.1-1.1c3.2-0.7,5.7-1.8,7.5-3.2
		V-574.1z M-567.5-579.7c-3.4,1.3-7.6,1.9-12.5,1.9c-4.9,0-9.1-0.6-12.5-1.9c-3.4-1.3-5.1-2.9-5.1-4.7c0-1.8,1.7-3.4,5.1-4.7
		c3.4-1.3,7.6-1.9,12.5-1.9c4.9,0,9.1,0.6,12.5,1.9c3.4,1.3,5.1,2.9,5.1,4.7C-562.4-582.5-564.1-580.9-567.5-579.7z M-600.6-584.4
		v14.4h-3.7c-3.5,0-6.5-1.2-9-3.7c-2.5-2.5-3.7-5.4-3.7-8.9c0-2.3,0.6-4.4,1.7-6.3c1.1-2,2.6-3.5,4.6-4.6l3-1.7l-1.2-3.2
		c-0.3-0.7-0.4-1.4-0.4-2.1c0-2.2,0.7-3.9,2.2-5.4c1.5-1.5,3.2-2.2,5.4-2.2c0.6,0,1.4,0.1,2.2,0.4l3.5,1.2l1.5-3.4
		c1.5-3.4,3.8-6,6.9-8c3.1-2,6.5-3,10.3-3c5,0,9.1,1.6,12.7,4.9c3.6,3.3,5.7,7.4,6.2,12.3l0.3,2.9l2.9,0.6c3.6,0.7,6.5,2.4,8.9,5.2
		c2.3,2.8,3.5,6,3.5,9.7c0,4.3-1.4,7.8-4.4,10.8c-3,3-6.5,4.4-10.8,4.4h-1.2v-14.4c0-3-2.1-5.4-6.2-7c-4.1-1.7-8.9-2.5-14.4-2.5
		c-5.5,0-10.3,0.9-14.4,2.5C-598.5-589.8-600.6-587.5-600.6-584.4z M-597.7-556.5v-5.5c1.5,1.5,3.8,2.7,7,3.5
		c3.2,0.8,6.8,1.2,10.6,1.2c3.8,0,7.3-0.4,10.6-1.2c3.2-0.8,5.6-2,7.1-3.5v5.5c0,1.8-1.7,3.4-5.1,4.7c-3.4,1.3-7.6,1.9-12.5,1.9
		c-4.9,0-9.1-0.6-12.5-1.9C-596-553.1-597.7-554.6-597.7-556.5z M-576-537c0,2.2-1.8,4-4,4c-2.2,0-4-1.8-4-4c0-2.2,1.8-4,4-4
		C-577.8-541-576-539.2-576-537z M-567.9-554.7c-0.3-0.3-0.4-0.6-0.4-1c0-0.4,0.1-0.8,0.4-1c0.3-0.3,0.6-0.4,1-0.4
		c0.4,0,0.8,0.1,1,0.4c0.3,0.3,0.4,0.7,0.4,1c0,0.4-0.1,0.7-0.4,1c-0.3,0.3-0.6,0.5-1,0.4C-567.2-554.3-567.6-554.5-567.9-554.7z
		 M-567.9-572.3c-0.3-0.2-0.4-0.6-0.4-1c0-0.4,0.1-0.8,0.4-1c0.3-0.3,0.6-0.4,1-0.4c0.4,0,0.8,0.1,1,0.4c0.3,0.3,0.4,0.7,0.4,1
		s-0.1,0.7-0.4,1c-0.3,0.3-0.6,0.5-1,0.4C-567.2-571.9-567.6-572-567.9-572.3z M-567.9-563.5c-0.3-0.3-0.4-0.6-0.4-1
		c0-0.4,0.1-0.8,0.4-1c0.3-0.3,0.6-0.4,1-0.4c0.4,0,0.8,0.1,1,0.4c0.3,0.3,0.4,0.7,0.4,1s-0.1,0.7-0.4,1c-0.3,0.3-0.6,0.5-1,0.4
		C-567.2-563.1-567.6-563.2-567.9-563.5z M-621-582.8C-621-582.7-621-582.7-621-582.8c0,0.1,0,0.1,0,0.2V-582.8z"/>
</g>
<g id="healthcare">
	<path fill="#FFFFFF" d="M-304-272.5c0-7.2,2.6-13.3,7.7-18.5c4.9-4.9,10.9-7.4,18-7.6c7-0.1,13.1,2.2,18.3,6.9
		c5.2-4.7,11.3-7,18.3-6.9c7,0.1,13,2.6,18,7.6c5.2,5.2,7.7,11.3,7.7,18.5c0,7.2-2.6,13.3-7.7,18.5c-0.2,0.2-10.4,10.3-30.4,30.1
		c-1.6,1.6-3.5,2.4-5.8,2.4s-4.2-0.8-5.8-2.4c-0.1,0-10.3-10-30.4-30.1C-301.4-259.1-304-265.3-304-272.5z"/>
	<path fill="#0678BE" d="M-304-272.5c0-7.2,2.6-13.3,7.7-18.5c4.9-4.9,10.9-7.4,18-7.6c7-0.1,13.1,2.2,18.3,6.9
		c5.2-4.7,11.3-7,18.3-6.9c7,0.1,13,2.6,18,7.6c5.2,5.2,7.7,11.3,7.7,18.5c0,7.2-2.6,13.3-7.7,18.5c-0.2,0.2-10.4,10.3-30.4,30.1
		c-1.6,1.6-3.5,2.4-5.8,2.4s-4.2-0.8-5.8-2.4c-0.1,0-10.3-10-30.4-30.1C-301.4-259.1-304-265.3-304-272.5z M-298.5-272.5
		c0,5.7,2.1,10.5,6.2,14.5l30.4,30.1c1.2,1.3,2.5,1.3,3.8,0l30.4-30.1c4.1-4,6.2-8.8,6.2-14.5s-2.1-10.5-6.2-14.5
		c-3.9-3.9-8.6-5.9-14.1-6c-5.5-0.1-10.3,1.7-14.4,5.4l-3.8,3.4l-3.8-3.4c-4.1-3.6-8.9-5.4-14.4-5.4c-5.5,0.1-10.2,2.1-14.1,6
		C-296.4-283-298.5-278.1-298.5-272.5L-298.5-272.5z M-290.3-273.1c0-3.2,1.1-6,3.4-8.3s5-3.4,8.3-3.4c0.9,0,1.4,0.5,1.4,1.4
		c0,0.9-0.5,1.4-1.4,1.4c-2.4,0-4.5,0.9-6.2,2.6c-1.8,1.7-2.6,3.8-2.6,6.3c0,0.9-0.5,1.4-1.4,1.4
		C-289.8-271.7-290.3-272.1-290.3-273.1z"/>
</g>
<g id="ed">
	<path fill="#FFFFFF" d="M16.1-277c0-1.9,0.6-3.7,1.8-5.2c1.2-1.5,2.8-2.5,4.6-2.9l35.7-8.3c0.7-0.1,1.3-0.2,1.8-0.2
		s1.1,0.1,1.8,0.2l35.7,8.3c1.8,0.5,3.3,1.4,4.6,2.9c1.2,1.5,1.8,3.2,1.8,5.2c0,2-0.6,3.7-1.8,5.2c-1.2,1.5-2.8,2.4-4.6,2.9
		l-7.4,1.8v23.2c0,4-2.5,7.3-7.4,9.9c-4.9,2.6-12.6,3.9-22.9,3.9c-10.3,0-18-1.3-22.9-3.9c-4.9-2.6-7.4-5.9-7.4-9.9v-23.2l-7.4-1.8
		c-1.8-0.5-3.3-1.4-4.6-2.9c-1.2-1.5-1.8-3.2-1.8-5.2H16.1z"/>
	<path fill="#0678BE" d="M16.1-277c0-1.9,0.6-3.7,1.8-5.2c1.2-1.5,2.8-2.5,4.6-2.9l35.7-8.3c0.7-0.1,1.3-0.2,1.8-0.2
		s1.1,0.1,1.8,0.2l35.7,8.3c1.8,0.5,3.3,1.4,4.6,2.9c1.2,1.5,1.8,3.2,1.8,5.2c0,2-0.6,3.7-1.8,5.2c-1.2,1.5-2.8,2.4-4.6,2.9
		l-7.4,1.8v23.2c0,4-2.5,7.3-7.4,9.9c-4.9,2.6-12.6,3.9-22.9,3.9c-10.3,0-18-1.3-22.9-3.9c-4.9-2.6-7.4-5.9-7.4-9.9v-23.2l-7.4-1.8
		c-1.8-0.5-3.3-1.4-4.6-2.9c-1.2-1.5-1.8-3.2-1.8-5.2H16.1z M21.5-277c0,1.5,0.7,2.4,2,2.7l35.7,8.3h1.4l35.7-8.3
		c1.3-0.4,2-1.3,2-2.7c0-1.5-0.7-2.4-2-2.7L60.7-288h-1.4l-35.7,8.3C22.2-279.4,21.5-278.5,21.5-277z M35.3-244
		c0,1.2,0.8,2.3,2.6,3.5c1.7,1.2,4.5,2.3,8.5,3.3c4,1,8.5,1.5,13.6,1.5s9.6-0.5,13.6-1.5c4-1,6.8-2.1,8.5-3.3
		c1.7-1.2,2.6-2.3,2.6-3.5v-22l-22.9,5.4c-0.7,0.1-1.3,0.2-1.8,0.2c-0.5,0-1.1-0.1-1.8-0.2L35.3-266V-244z M93-222
		c0-1.8,0.6-4.1,1.8-6.9c1.2-2.8,2.4-4.1,3.8-4.1c1.3,0,2.6,1.4,3.8,4.1c1.2,2.8,1.8,5,1.8,6.9c0,1.5-0.6,2.8-1.7,3.9
		c-1.1,1.1-2.4,1.7-3.9,1.7c-1.5,0-2.8-0.6-3.9-1.7C93.6-219.2,93-220.5,93-222z M95.7-238.5v-24.7c0-0.8,0.3-1.5,0.8-1.9
		c0.5-0.5,1.2-0.7,1.9-0.8c0.8-0.1,1.4,0.2,1.9,0.8c0.5,0.6,0.8,1.2,0.8,1.9v24.7c0,0.8-0.3,1.5-0.8,1.9c-0.5,0.5-1.2,0.7-1.9,0.8
		c-0.8,0.1-1.4-0.2-1.9-0.8C96-237.1,95.7-237.8,95.7-238.5z"/>
</g>
<g id="media">
	<path fill="#FFFFFF" d="M-943.7,92.9v-55c0-2.3,0.8-4.2,2.4-5.8s3.5-2.4,5.8-2.4h2.7v-5.5c0-2.3,0.8-4.2,2.4-5.8s3.5-2.4,5.8-2.4
		h60.5c2.3,0,4.2,0.8,5.8,2.4s2.4,3.5,2.4,5.8V93c0,3.1-1.1,5.7-3.2,7.8c-2.1,2.1-4.7,3.2-7.8,3.2h-66c-3.1,0-5.7-1.1-7.8-3.2
		c-2.1-2.1-3.2-4.7-3.2-7.8L-943.7,92.9z"/>
	<path fill="#0678BE" d="M-943.7,92.9v-55c0-2.3,0.8-4.2,2.4-5.8s3.5-2.4,5.8-2.4h2.7v-5.5c0-2.3,0.8-4.2,2.4-5.8s3.5-2.4,5.8-2.4
		h60.5c2.3,0,4.2,0.8,5.8,2.4s2.4,3.5,2.4,5.8V93c0,3.1-1.1,5.7-3.2,7.8c-2.1,2.1-4.7,3.2-7.8,3.2h-66c-3.1,0-5.7-1.1-7.8-3.2
		c-2.1-2.1-3.2-4.7-3.2-7.8L-943.7,92.9z M-938.3,92.9c0,1.5,0.6,2.8,1.7,3.9c1.1,1.1,2.4,1.7,3.9,1.7h66c1.5,0,2.8-0.6,3.9-1.7
		c1.1-1.1,1.7-2.4,1.7-3.9V24.1c0-0.8-0.3-1.5-0.8-1.9c-0.5-0.5-1.2-0.7-1.9-0.8h-60.5c-0.8,0-1.5,0.3-1.9,0.8
		c-0.5,0.5-0.7,1.2-0.8,1.9v66c0,0.8-0.3,1.5-0.8,1.9c-0.5,0.5-1.2,0.7-1.9,0.8c-0.8,0.1-1.4-0.2-1.9-0.8c-0.5-0.6-0.8-1.2-0.8-1.9
		v-55h-2.7c-0.8,0-1.5,0.3-1.9,0.8c-0.5,0.5-0.7,1.2-0.8,1.9v55H-938.3z M-921.8,48.8V29.5c0-0.8,0.3-1.5,0.8-1.9
		c0.5-0.5,1.2-0.7,1.9-0.8h19.3c0.8,0,1.5,0.3,1.9,0.8c0.5,0.5,0.7,1.2,0.8,1.9v19.3c0,0.8-0.3,1.5-0.8,1.9
		c-0.5,0.5-1.2,0.7-1.9,0.8h-19.3c-0.8,0-1.5-0.3-1.9-0.8C-921.5,50.2-921.8,49.5-921.8,48.8z M-921.8,58.4c0-0.9,0.5-1.4,1.4-1.4
		h52.3c0.9,0,1.4,0.5,1.4,1.4c0,0.9-0.5,1.4-1.4,1.4h-52.3C-921.4,59.8-921.8,59.3-921.8,58.4z M-921.8,66.6c0-0.9,0.5-1.4,1.4-1.4
		h52.3c0.9,0,1.4,0.5,1.4,1.4c0,0.9-0.5,1.4-1.4,1.4h-52.3C-921.4,68.1-921.8,67.6-921.8,66.6z M-921.8,74.9c0-0.9,0.5-1.4,1.4-1.4
		h22c0.9,0,1.4,0.5,1.4,1.4c0,0.4-0.1,0.7-0.4,1c-0.3,0.3-0.6,0.4-1,0.4h-22C-921.4,76.3-921.8,75.9-921.8,74.9z M-921.8,83.2
		c0-0.9,0.5-1.4,1.4-1.4h22c0.9,0,1.4,0.5,1.4,1.4c0,0.9-0.5,1.4-1.4,1.4h-22C-921.4,84.6-921.8,84.1-921.8,83.2z M-921.8,91.5
		c0-0.9,0.5-1.4,1.4-1.4h22c0.9,0,1.4,0.5,1.4,1.4s-0.5,1.4-1.4,1.4h-22C-921.4,92.9-921.8,92.4-921.8,91.5z M-916.4,46.1h13.7V32.3
		h-13.7V46.1z M-891.6,33.6c0-0.9,0.5-1.4,1.4-1.4h22c0.9,0,1.4,0.5,1.4,1.4c0,0.9-0.5,1.4-1.4,1.4h-22
		C-891.2,35.1-891.6,34.6-891.6,33.6z M-891.6,41.9c0-0.9,0.5-1.4,1.4-1.4h22c0.9,0,1.4,0.5,1.4,1.4c0,0.9-0.5,1.4-1.4,1.4h-22
		C-891.2,43.3-891.6,42.9-891.6,41.9z M-891.6,50.2c0-0.9,0.5-1.4,1.4-1.4h22c0.9,0,1.4,0.5,1.4,1.4c0,0.9-0.5,1.4-1.4,1.4h-22
		C-891.2,51.6-891.6,51.1-891.6,50.2z M-891.6,74.9c0-0.9,0.5-1.4,1.4-1.4h22c0.9,0,1.4,0.5,1.4,1.4c0,0.4-0.1,0.7-0.4,1
		c-0.3,0.3-0.6,0.4-1,0.4h-22C-891.2,76.3-891.6,75.9-891.6,74.9z M-891.6,83.2c0-0.9,0.5-1.4,1.4-1.4h22c0.9,0,1.4,0.5,1.4,1.4
		c0,0.9-0.5,1.4-1.4,1.4h-22C-891.2,84.6-891.6,84.1-891.6,83.2z M-891.6,91.5c0-0.9,0.5-1.4,1.4-1.4h22c0.9,0,1.4,0.5,1.4,1.4
		s-0.5,1.4-1.4,1.4h-22C-891.2,92.9-891.6,92.4-891.6,91.5z"/>
</g>
<g id="government">
	<path fill="#FFFFFF" d="M-610.2,90.2c-8.3-8.3-12.5-18.4-12.5-30.2s4.2-21.9,12.5-30.2c8.3-8.3,18.4-12.5,30.2-12.5
		c11.8,0,21.9,4.2,30.2,12.5c8.3,8.3,12.5,18.4,12.5,30.2s-4.2,21.9-12.5,30.2c-8.3,8.3-18.4,12.5-30.2,12.5
		C-591.8,102.7-601.9,98.5-610.2,90.2z"/>
	<path fill="#0678BE" d="M-610.2,90.2c-8.3-8.3-12.5-18.4-12.5-30.2s4.2-21.9,12.5-30.2c8.3-8.3,18.4-12.5,30.2-12.5
		c11.8,0,21.9,4.2,30.2,12.5c8.3,8.3,12.5,18.4,12.5,30.2s-4.2,21.9-12.5,30.2c-8.3,8.3-18.4,12.5-30.2,12.5
		C-591.8,102.7-601.9,98.5-610.2,90.2z M-617.2,58.7h16.5c0.2-6.1,1.3-11.8,3.3-17.2c-3.6-1.5-7.1-3.5-10.3-6
		C-613.8,42.2-616.9,49.9-617.2,58.7L-617.2,58.7z M-617.2,61.4c0.5,9.7,4.1,18,11,24.9c3.1-2.2,6.3-4,9.6-5.4
		c-2.5-6.2-3.9-12.7-4.1-19.6L-617.2,61.4L-617.2,61.4z M-605.9,33.4c3,2.3,6.1,4.1,9.4,5.5c2.5-6,6-11.1,10.3-15.5
		C-593.8,24.6-600.4,27.9-605.9,33.4L-605.9,33.4z M-604.1,88.2c5.2,4.5,11.2,7.3,18,8.4c-3.8-3.8-6.8-8.1-9.2-13
		C-598.4,84.8-601.4,86.4-604.1,88.2L-604.1,88.2z M-598,58.7h16.5V45c-4.6-0.2-9-1.1-13.4-2.6C-596.7,47.6-597.7,53-598,58.7
		L-598,58.7z M-598,61.4c0.2,6.5,1.6,12.8,4,18.7c4-1.2,8.2-2,12.6-2.2V61.5L-598,61.4L-598,61.4z M-593.8,39.8
		c4,1.4,8.1,2.1,12.4,2.4V22.9h-0.2C-586.9,27.3-590.9,32.9-593.8,39.8L-593.8,39.8z M-592.8,82.5c2.9,5.9,6.6,10.7,11.2,14.6h0.2
		V80.7C-585.4,80.9-589.2,81.5-592.8,82.5z M-578.7,42.1c4.2-0.2,8.4-1,12.4-2.4c-2.9-6.7-7-12.3-12.2-16.8h-0.2V42.1L-578.7,42.1z
		 M-578.7,58.6h16.5c-0.2-5.7-1.3-11.2-3.1-16.4c-4.3,1.5-8.8,2.3-13.4,2.6V58.6L-578.7,58.6z M-578.7,77.9c4.3,0.2,8.5,1,12.6,2.2
		c2.4-6,3.7-12.2,4-18.7h-16.5L-578.7,77.9L-578.7,77.9z M-578.7,97.1h0.2c4.6-3.9,8.3-8.7,11.2-14.6c-3.6-1.1-7.4-1.7-11.4-1.8
		V97.1z M-574,23.4c4.3,4.3,7.8,9.5,10.3,15.5c3.3-1.3,6.5-3.2,9.4-5.5C-559.8,28-566.4,24.7-574,23.4L-574,23.4z M-574,96.6
		c6.9-1.2,12.9-4,18-8.4c-2.8-1.9-5.7-3.5-8.8-4.7C-567.2,88.4-570.3,92.8-574,96.6L-574,96.6z M-563.5,80.9
		c3.3,1.3,6.5,3.1,9.6,5.4c6.9-6.9,10.5-15.2,11-24.9h-16.5C-559.6,68.3-561,74.8-563.5,80.9L-563.5,80.9z M-562.7,41.4
		c1.9,5.4,3,11.1,3.3,17.2h16.5c-0.4-8.8-3.5-16.5-9.4-23.2C-555.6,37.9-559,39.9-562.7,41.4L-562.7,41.4z"/>
</g>
<g id="api">
	<path fill="#FFFFFF" d="M-228.2,94.4h-63.7c-5.9,0-10.8-4.8-10.8-10.8V36.4c0-5.9,4.8-10.8,10.8-10.8h63.7
		c5.9,0,10.8,4.8,10.8,10.8v47.3C-217.4,89.6-222.2,94.4-228.2,94.4z"/>
	<path fill="#0678BE" d="M-294,51.3l2.2-2.2l8.8,8.8l-9,9l-2.1-2.1l6.8-6.8C-287.2,57.9-294,51.2-294,51.3z"/>
	<rect x="-278" y="55.8" fill="#0678BE" width="11.7" height="3.4"/>
	<path fill="#0678BE" d="M-226,23.2H-294c-6.1,0-11,5-11,11v51.5c0,6.1,5,11,11,11h67.9c6.1,0,11-5,11-11V34.2
		C-215,28.1-220,23.2-226,23.2z M-239.7,28.6h13.8c1.3,0,2.4,1.1,2.4,2.4c0,1.3-1.1,2.4-2.4,2.4h-13.8c-1.3,0-2.4-1.1-2.4-2.4
		C-242.1,29.7-241,28.6-239.7,28.6z M-219.8,85.8c0,3.4-2.8,6.2-6.2,6.2H-294c-3.4,0-6.2-2.8-6.2-6.2V39.2c0-1.1,0.9-2,2-2h76.4
		c1.1,0,2,0.9,2,2V85.8z"/>
	<path fill="#0678BE" d="M-223.4,75.9v-3.8h-4c-0.3-1.2-0.7-2.3-1.4-3.2l2.9-2.9l-2.7-2.7l-2.9,2.9c-1-0.6-2-1.1-3.2-1.4v-4h-3.8
		v3.9c-1.2,0.2-2.3,0.7-3.4,1.3l-2.7-2.7l-2.7,2.7l2.6,2.6c-0.7,1-1.3,2.2-1.5,3.4h-3.6v3.8h3.5c0.2,1.3,0.7,2.5,1.4,3.6l-2.5,2.5
		l2.7,2.7l2.4-2.4c1.1,0.7,2.3,1.2,3.6,1.5v3.5h3.8v-3.6c1.3-0.3,2.4-0.8,3.5-1.5l2.6,2.6l2.7-2.7l-2.7-2.7c0.6-1,1.1-2.2,1.3-3.4
		H-223.4z M-236.7,80.2c-3.3,0-6-2.7-6-6s2.7-6,6-6c3.3,0,6,2.7,6,6S-233.4,80.2-236.7,80.2z"/>
</g>
<g id="no_profit">
	<g>
		<path fill="#0678BE" d="M54.3,48.4L34.8,67.8c-1.8,1.8-1.8,4.6,0,6.4h0c1.8,1.8,4.6,1.8,6.4,0l19.5-19.5L54.3,48.4z"/>
		<path fill="#0678BE" d="M98.6,34.4c-8.6-8.6-22.4-8.6-31,0c0,0,0,0,0,0l8.9,8.7c3.6,3.6,3.8,9.3,0.5,13.1v0l-0.5,0.5l-0.5,0.5h0
			c-1.7,1.5-4,2.3-6.3,2.3c-2.6,0-5-1-6.8-2.8l-0.7-0.7c0,0.1,0.1,0.2,0.1,0.3L42.9,75.8c-1.8,1.8-1.8,4.6,0,6.4h0
			c1.8,1.8,4.6,1.8,6.4,0l17.6-17.6c0.2,0.3,0.5,0.6,0.7,0.8c0.3,0.3,0.6,0.6,0.9,0.8L50.9,83.9c-1.8,1.8-1.8,4.6,0,6.4
			c1.8,1.8,4.6,1.8,6.4,0l19.4-19.4c0.9,0.3,1.8,0.5,2.7,0.6L58.9,91.9c-1.8,1.8-1.8,4.6,0,6.4c1.8,1.8,4.6,1.8,6.4,0l30.4-30.4
			c1-0.7,2-1.5,2.9-2.4c1-1,1.8-2,2.5-3.1c0.4-0.4,0.6-0.8,0.8-1.3C106.9,52.6,105.8,41.6,98.6,34.4z"/>
	</g>
	<path fill="#FFFFFF" d="M73.4,53.8c2.1-2.1,2.1-5.5,0-7.7L54.9,28l0,0c-0.4-0.3-2.1-1.6-2.6-1.8C43,20.6,30.6,22.2,23,31
		c-6.7,7.7-7.4,19.2-1.8,27.7c1.9,2.9,4.2,5.1,6.8,6.8l0.5,0.3c0,0,0.7-0.5,1-0.8l23.7-23.7l12.6,12.6
		C67.9,55.9,71.3,55.9,73.4,53.8L73.4,53.8z"/>
	<path fill="#0678BE" d="M28.5,68.2c-0.5,0-0.9-0.1-1.3-0.4l-0.5-0.3c-3.1-2-5.6-4.5-7.5-7.5c-6.2-9.5-5.4-22.1,2-30.7
		C29.3,20,42.9,17.7,53.5,24c1,0.5,2.6,1.8,3,2c0.2,0.1,0.3,0.3,0.4,0.4l18.3,18c3.1,3.1,3.1,8.1,0,11.2c0,0,0,0,0,0
		c-3.1,3.1-8.1,3.1-11.2,0L53.2,44.8l-22,22c-0.2,0.2-1.1,1-1.6,1.3C29.3,68.1,28.9,68.2,28.5,68.2z M40.6,25.4
		c-5.8,0-11.6,2.5-15.7,7.2c-6,6.9-6.6,17.1-1.6,24.7c1.3,2.1,3,3.9,5,5.3l23.1-23.1c0.9-0.9,2.6-0.9,3.5,0l12.6,12.6
		c1.1,1.1,3,1.1,4.2,0c1.1-1.1,1.1-3,0-4.2L53.2,29.7c-0.6-0.5-1.5-1.1-1.9-1.3c-0.1,0-0.2-0.1-0.3-0.1
		C47.8,26.4,44.2,25.4,40.6,25.4z M51.4,28.4C51.4,28.5,51.4,28.5,51.4,28.4C51.4,28.5,51.4,28.5,51.4,28.4z"/>
</g>
</svg>
