<svg id="Livello_1" data-name="Livello 1" xmlns="http://www.w3.org/2000/svg" width="88.2" height="77.1" viewBox="0 0 88.2 77.1">
  <title>icon-industry-ed</title>
  <g>
    <path d="M.2,16.5A7.9,7.9,0,0,1,2,11.4a8.6,8.6,0,0,1,4.6-3L42.3.2,44.2,0,46,.2,81.8,8.4a8.6,8.6,0,0,1,4.5,3,7.2,7.2,0,0,1,1.9,5.1,7.4,7.4,0,0,1-1.9,5.2,7.9,7.9,0,0,1-4.5,2.9l-7.4,1.8V49.6c0,4-2.5,7.3-7.4,9.9s-12.6,3.9-22.9,3.9-18-1.3-22.9-3.9-7.4-5.9-7.4-9.9V26.4L6.4,24.6a8.5,8.5,0,0,1-4.6-2.9A7.8,7.8,0,0,1,0,16.5Z" fill="#fff"/>
    <path d="M.2,16.5A7.9,7.9,0,0,1,2,11.4a8.6,8.6,0,0,1,4.6-3L42.3.2,44.2,0,46,.2,81.8,8.4a8.6,8.6,0,0,1,4.5,3,7.2,7.2,0,0,1,1.9,5.1,7.4,7.4,0,0,1-1.9,5.2,7.9,7.9,0,0,1-4.5,2.9l-7.4,1.8V49.6c0,4-2.5,7.3-7.4,9.9s-12.6,3.9-22.9,3.9-18-1.3-22.9-3.9-7.4-5.9-7.4-9.9V26.4L6.4,24.6a8.5,8.5,0,0,1-4.6-2.9A7.8,7.8,0,0,1,0,16.5Zm5.4,0a2.6,2.6,0,0,0,2.1,2.8l35.7,8.2h1.4l35.7-8.2a2.6,2.6,0,0,0,2-2.8,2.5,2.5,0,0,0-2-2.7L44.8,5.5H43.4L7.7,13.8A2.6,2.6,0,0,0,5.6,16.5Zm13.8,33c0,1.2.8,2.4,2.5,3.6a30.9,30.9,0,0,0,8.5,3.2,56.9,56.9,0,0,0,13.7,1.5,56,56,0,0,0,13.6-1.5,30.6,30.6,0,0,0,8.6-3.2c1.7-1.2,2.5-2.4,2.5-3.6v-22L45.9,32.9l-1.8.2-1.9-.2L19.4,27.5Zm57.7,22a19.2,19.2,0,0,1,1.7-6.8c1.2-2.8,2.5-4.2,3.8-4.2s2.6,1.4,3.8,4.2a17.6,17.6,0,0,1,1.8,6.8,5.4,5.4,0,0,1-9.4,3.9A5,5,0,0,1,77.1,71.5Zm2.7-16.4V30.4a2.6,2.6,0,0,1,.8-2,4.1,4.1,0,0,1,1.9-.8,2.4,2.4,0,0,1,2,.8,3.2,3.2,0,0,1,.8,2V55.1a2.4,2.4,0,0,1-.8,1.9,2.8,2.8,0,0,1-2,.8,2.1,2.1,0,0,1-1.9-.8A2.9,2.9,0,0,1,79.8,55.1Z" fill="#0678be"/>
  </g>
</svg>
