<svg xmlns="http://www.w3.org/2000/svg" xmlns:xlink="http://www.w3.org/1999/xlink" width="100" height="100" viewBox="0 0 100 100"><g><g transform="translate(50 50) scale(0.69 0.69) rotate(0) translate(-50 -50)" style="fill:#036db6"><svg fill="#036db6" xmlns="http://www.w3.org/2000/svg" xmlns:xlink="http://www.w3.org/1999/xlink" version="1.1" x="0px" y="0px" viewBox="0 0 100 100" enable-background="new 0 0 100 100" xml:space="preserve"><g><path d="M94.977,39.994c1.381,0,2.5-1.119,2.5-2.5s-1.119-2.5-2.5-2.5h-6.379v-7.206h6.379c1.381,0,2.5-1.119,2.5-2.5   s-1.119-2.5-2.5-2.5h-6.379V16.95c0-3.584-2.916-6.5-6.5-6.5H76.26V4.071c0-1.381-1.119-2.5-2.5-2.5s-2.5,1.119-2.5,2.5v6.379   h-7.206V4.071c0-1.381-1.119-2.5-2.5-2.5s-2.5,1.119-2.5,2.5v6.379h-7.206V4.071c0-1.381-1.119-2.5-2.5-2.5s-2.5,1.119-2.5,2.5   v6.379h-7.206V4.071c0-1.381-1.119-2.5-2.5-2.5s-2.5,1.119-2.5,2.5v6.379h-7.206V4.071c0-1.381-1.119-2.5-2.5-2.5   s-2.5,1.119-2.5,2.5v6.379h-5.838c-3.584,0-6.5,2.916-6.5,6.5v5.838H3.718c-1.381,0-2.5,1.119-2.5,2.5s1.119,2.5,2.5,2.5h6.379   v7.206H3.718c-1.381,0-2.5,1.119-2.5,2.5s1.119,2.5,2.5,2.5h6.379V47.2H3.718c-1.381,0-2.5,1.119-2.5,2.5s1.119,2.5,2.5,2.5h6.379   v7.206H3.718c-1.381,0-2.5,1.119-2.5,2.5s1.119,2.5,2.5,2.5h6.379v7.206H3.718c-1.381,0-2.5,1.119-2.5,2.5s1.119,2.5,2.5,2.5h6.379   v5.838c0,3.584,2.916,6.5,6.5,6.5h5.838v6.38c0,1.381,1.119,2.5,2.5,2.5s2.5-1.119,2.5-2.5v-6.38h7.206v6.38   c0,1.381,1.119,2.5,2.5,2.5s2.5-1.119,2.5-2.5v-6.38h7.206v6.38c0,1.381,1.119,2.5,2.5,2.5s2.5-1.119,2.5-2.5v-6.38h7.206v6.38   c0,1.381,1.119,2.5,2.5,2.5s2.5-1.119,2.5-2.5v-6.38h7.206v6.38c0,1.381,1.119,2.5,2.5,2.5s2.5-1.119,2.5-2.5v-6.38h5.838   c3.584,0,6.5-2.916,6.5-6.5v-5.838h6.379c1.381,0,2.5-1.119,2.5-2.5s-1.119-2.5-2.5-2.5h-6.379v-7.206h6.379   c1.381,0,2.5-1.119,2.5-2.5s-1.119-2.5-2.5-2.5h-6.379V52.2h6.379c1.381,0,2.5-1.119,2.5-2.5s-1.119-2.5-2.5-2.5h-6.379v-7.206   H94.977z M83.598,82.45c0,0.827-0.673,1.5-1.5,1.5h-65.5c-0.827,0-1.5-0.673-1.5-1.5v-65.5c0-0.827,0.673-1.5,1.5-1.5h65.5   c0.827,0,1.5,0.673,1.5,1.5V82.45z"></path><path d="M49.347,24.543c-13.894,0-25.157,11.263-25.157,25.157c0,13.894,11.263,25.157,25.157,25.157   c13.895,0,25.157-11.264,25.157-25.157C74.504,35.806,63.242,24.543,49.347,24.543z M61.578,57.101c0,1.22-0.277,2.363-0.828,3.43   c-0.553,1.066-1.344,1.991-2.372,2.771c-1.029,0.78-2.278,1.4-3.743,1.856c-0.902,0.283-1.883,0.467-2.921,0.574v4.079h-4.732   v-4.112c-1.577-0.158-3.063-0.441-4.435-0.883c-2.135-0.686-3.944-1.601-5.43-2.742l2.572-4.346   c1.408,0.953,2.915,1.744,4.515,2.373c1.6,0.629,3.352,0.943,5.258,0.943c2.057,0,3.657-0.363,4.801-1.086   c1.142-0.723,1.713-1.715,1.713-2.973v-0.457c0-0.648-0.096-1.199-0.285-1.658c-0.191-0.455-0.553-0.855-1.086-1.199   c-0.533-0.342-1.257-0.658-2.173-0.943c-0.913-0.285-2.113-0.58-3.599-0.885c-1.715-0.344-3.239-0.762-4.572-1.258   c-1.334-0.494-2.458-1.094-3.373-1.8c-0.914-0.704-1.609-1.552-2.087-2.543c-0.477-0.99-0.712-2.173-0.712-3.544v-0.686   c0-1.065,0.228-2.114,0.684-3.143c0.458-1.029,1.162-1.934,2.115-2.714c0.952-0.781,2.162-1.41,3.629-1.888   c0.748-0.242,1.57-0.421,2.463-0.541v-4.14h4.732v4.045c1.401,0.104,2.739,0.309,4.005,0.635c1.85,0.478,3.555,1.268,5.115,2.373   l-2.456,4.171c-1.029-0.761-2.258-1.372-3.687-1.829c-1.43-0.457-2.943-0.685-4.544-0.685c-2.324,0-3.992,0.352-5,1.057   c-1.01,0.706-1.515,1.61-1.515,2.714v0.514c0,1.221,0.515,2.125,1.543,2.716s2.761,1.113,5.2,1.571   c1.906,0.344,3.563,0.763,4.972,1.257c1.41,0.496,2.572,1.116,3.487,1.857c0.915,0.743,1.601,1.63,2.058,2.658   c0.457,1.029,0.686,2.268,0.686,3.716V57.101z"></path><path d="M49.348,19.703c-16.541,0-29.997,13.457-29.997,29.997c0,16.54,13.457,29.997,29.997,29.997   c16.54,0,29.997-13.457,29.997-29.997C79.345,33.16,65.888,19.703,49.348,19.703z M49.348,77.697   c-15.438,0-27.997-12.56-27.997-27.997s12.56-27.997,27.997-27.997S77.345,34.263,77.345,49.7S64.785,77.697,49.348,77.697z"></path></g></svg></g></g></svg>