<svg xmlns="http://www.w3.org/2000/svg" xmlns:xlink="http://www.w3.org/1999/xlink" width="100" height="100" viewBox="0 0 100 100"><g><g transform="translate(50 50) scale(0.69 0.69) rotate(0) translate(-50 -50)" style="fill:#036db6"><svg fill="#036db6" xmlns="http://www.w3.org/2000/svg" xmlns:xlink="http://www.w3.org/1999/xlink" version="1.1" x="0px" y="0px" viewBox="0 0 33 33" enable-background="new 0 0 33 33" xml:space="preserve"><path d="M25.259,0.5H7.741c-1.086,0-1.965,0.879-1.965,1.965v28.07c0,1.084,0.879,1.965,1.965,1.965h17.518  c1.086,0,1.965-0.881,1.965-1.965V2.465C27.224,1.379,26.345,0.5,25.259,0.5z M17.933,30.535h-2.865  c-0.52,0-0.941-0.424-0.941-0.941c0-0.52,0.422-0.941,0.941-0.941h2.865c0.52,0,0.941,0.422,0.941,0.941  C18.874,30.111,18.452,30.535,17.933,30.535z M24.687,26.441H8.313V3.514h16.374V26.441z"></path><path d="M16.499,21.787c3.762,0,6.809-3.047,6.809-6.809s-3.047-6.811-6.809-6.811c-3.76,0-6.808,3.049-6.808,6.811  S12.739,21.787,16.499,21.787z M21.089,18.842h-1.678l-0.842-1.154l0.975-2.986l1.338-0.436l1.6,1.164  C22.386,16.725,21.88,17.904,21.089,18.842z M16.81,10.887l1.998-1.449c1.043,0.436,1.936,1.158,2.582,2.07l-0.701,2.164  l-1.455,0.473l-2.424-1.76V10.887z M18.11,18.113l0.799,1.096l-0.473,1.451c-0.607,0.207-1.26,0.326-1.938,0.326  s-1.328-0.119-1.938-0.326l-0.469-1.451l0.797-1.096H18.11z M14.19,9.438l2,1.449v1.498l-2.422,1.76l-1.455-0.473l-0.705-2.164  C12.259,10.596,13.146,9.873,14.19,9.438z M12.12,14.266l1.338,0.436l0.971,2.986l-0.838,1.154h-1.684  c-0.789-0.938-1.291-2.117-1.389-3.412L12.12,14.266z"></path></svg></g></g></svg>