<?xml version="1.0" encoding="utf-8"?>
<!-- Generator: Adobe Illustrator 22.1.0, SVG Export Plug-In . SVG Version: 6.00 Build 0)  -->
<svg version="1.1" id="Layer_1" xmlns="http://www.w3.org/2000/svg" xmlns:xlink="http://www.w3.org/1999/xlink" x="0px" y="0px"
	 viewBox="0 0 60 56" style="enable-background:new 0 0 60 56;" xml:space="preserve">
<style type="text/css">
	.st0{fill:#FCFCFC;}
	.st1{fill:#0678BE;}
</style>
<g>
	<rect x="24" y="44" class="st0" width="12.1" height="6.9"/>
	<rect x="2" y="1.4" class="st0" width="56" height="40.6"/>
	<rect x="15" y="51.2" class="st0" width="29.7" height="2.8"/>
	<path class="st1" d="M59,36H1c-0.6,0-1-0.4-1-1V4c0-2.2,1.8-4,4-4h52c2.2,0,4,1.8,4,4v31C60,35.6,59.6,36,59,36z M2,34h56V4
		c0-1.1-0.9-2-2-2H4C2.9,2,2,2.9,2,4V34z"/>
	<path class="st1" d="M56,44H4c-2.2,0-4-1.8-4-4v-5c0-0.6,0.4-1,1-1h58c0.6,0,1,0.4,1,1v5C60,42.2,58.2,44,56,44z M2,36v4
		c0,1.1,0.9,2,2,2h52c1.1,0,2-0.9,2-2v-4H2z"/>
	<path class="st1" d="M33,40h-6c-0.6,0-1-0.4-1-1s0.4-1,1-1h6c0.6,0,1,0.4,1,1S33.6,40,33,40z"/>
	<path class="st1" d="M55,36H5c-0.6,0-1-0.4-1-1V5c0-0.6,0.4-1,1-1h50c0.6,0,1,0.4,1,1v30C56,35.6,55.6,36,55,36z M6,34h48V6H6V34z"
		/>
	<path class="st1" d="M43,56H17c-1.7,0-3-1.3-3-3s1.3-3,3-3h26c1.7,0,3,1.3,3,3S44.7,56,43,56z M17,52c-0.6,0-1,0.4-1,1s0.4,1,1,1
		h26c0.6,0,1-0.4,1-1s-0.4-1-1-1H17z"/>
	<path class="st1" d="M41,52H19c-0.6,0-1-0.4-1-1s0.4-1,1-1c3.3,0,5-2.4,5-7c0-0.6,0.4-1,1-1h10c0.6,0,1,0.4,1,1c0,4.6,1.7,7,5,7
		c0.6,0,1,0.4,1,1S41.6,52,41,52z M23.9,50h12.3c-1.2-1.4-2-3.4-2.1-6H26C25.8,46.6,25.1,48.6,23.9,50z"/>
	<path class="st1" d="M36,30H24c-0.6,0-1-0.4-1-1s0.4-1,1-1h12c0.6,0,1,0.4,1,1S36.6,30,36,30z"/>
	<path class="st1" d="M24,32h-4c-0.6,0-1-0.4-1-1v-4c0-0.6,0.4-1,1-1h4c0.6,0,1,0.4,1,1v4C25,31.6,24.6,32,24,32z M21,30h2v-2h-2V30
		z"/>
	<path class="st1" d="M40,32h-4c-0.6,0-1-0.4-1-1v-4c0-0.6,0.4-1,1-1h4c0.6,0,1,0.4,1,1v4C41,31.6,40.6,32,40,32z M37,30h2v-2h-2V30
		z"/>
	<path class="st1" d="M20,28c-1.7,0-3-1.3-3-3s1.3-3,3-3c0.6,0,1,0.4,1,1s-0.4,1-1,1s-1,0.4-1,1s0.4,1,1,1s1,0.4,1,1S20.6,28,20,28z
		"/>
	<path class="st1" d="M40,24H20c-0.5,0-0.9-0.3-1-0.8l-3-12c-0.1-0.3,0-0.6,0.2-0.9c0.2-0.2,0.5-0.4,0.8-0.4h26
		c0.3,0,0.6,0.1,0.8,0.4s0.3,0.6,0.2,0.9l-3,12C40.9,23.7,40.5,24,40,24z M20.8,22h18.4l2.5-10H18.3L20.8,22z"/>
	<path class="st1" d="M17,12c-0.4,0-0.7-0.2-0.9-0.6l-1-2c-0.2-0.5,0-1.1,0.4-1.3c0.5-0.2,1.1,0,1.3,0.4l1,2c0.2,0.5,0,1.1-0.4,1.3
		C17.3,12,17.2,12,17,12z"/>
	<path class="st1" d="M16,10h-3c-0.6,0-1-0.4-1-1s0.4-1,1-1h3c0.6,0,1,0.4,1,1S16.6,10,16,10z"/>
	<path class="st1" d="M41,20H19c-0.6,0-1-0.4-1-1s0.4-1,1-1h22c0.6,0,1,0.4,1,1S41.6,20,41,20z"/>
	<path class="st1" d="M42,16H18c-0.6,0-1-0.4-1-1s0.4-1,1-1h24c0.6,0,1,0.4,1,1S42.6,16,42,16z"/>
	<path class="st1" d="M30,24c-0.6,0-1-0.4-1-1V11c0-0.6,0.4-1,1-1s1,0.4,1,1v12C31,23.6,30.6,24,30,24z"/>
	<path class="st1" d="M25,24c-0.5,0-0.9-0.3-1-0.8l-2-12c-0.1-0.5,0.3-1.1,0.8-1.2c0.5-0.1,1.1,0.3,1.2,0.8l2,12
		c0.1,0.5-0.3,1.1-0.8,1.2C25.1,24,25.1,24,25,24z"/>
	<path class="st1" d="M35,24c-0.1,0-0.1,0-0.2,0c-0.5-0.1-0.9-0.6-0.8-1.2l2-12c0.1-0.5,0.6-0.9,1.2-0.8c0.5,0.1,0.9,0.6,0.8,1.2
		l-2,12C35.9,23.7,35.5,24,35,24z"/>
</g>
</svg>
